<?xml version="1.0" encoding="UTF-8" standalone="no"?>
<!-- Generator: Adobe Illustrator 19.0.0, SVG Export Plug-In . SVG Version: 6.00 Build 0)  -->

<svg
   xmlns:dc="http://purl.org/dc/elements/1.1/"
   xmlns:cc="http://creativecommons.org/ns#"
   xmlns:rdf="http://www.w3.org/1999/02/22-rdf-syntax-ns#"
   xmlns:svg="http://www.w3.org/2000/svg"
   xmlns="http://www.w3.org/2000/svg"
   xmlns:xlink="http://www.w3.org/1999/xlink"
   xmlns:sodipodi="http://sodipodi.sourceforge.net/DTD/sodipodi-0.dtd"
   xmlns:inkscape="http://www.inkscape.org/namespaces/inkscape"
   version="1.1"
   id="Capa_1"
   x="0px"
   y="0px"
   viewBox="0 0 512 512"
   style="enable-background:new 0 0 512 512;"
   xml:space="preserve"
   sodipodi:docname="graphic2.svg"
   inkscape:version="0.92.4 (5da689c313, 2019-01-14)"><metadata
   id="metadata3883"><rdf:RDF><cc:Work
       rdf:about=""><dc:format>image/svg+xml</dc:format><dc:type
         rdf:resource="http://purl.org/dc/dcmitype/StillImage" /><dc:title></dc:title></cc:Work></rdf:RDF></metadata><defs
   id="defs3881" /><sodipodi:namedview
   pagecolor="#ffffff"
   bordercolor="#666666"
   borderopacity="1"
   objecttolerance="10"
   gridtolerance="10"
   guidetolerance="10"
   inkscape:pageopacity="0"
   inkscape:pageshadow="2"
   inkscape:window-width="1301"
   inkscape:window-height="744"
   id="namedview3879"
   showgrid="false"
   inkscape:zoom="1.1757812"
   inkscape:cx="256"
   inkscape:cy="178.7991"
   inkscape:window-x="65"
   inkscape:window-y="24"
   inkscape:window-maximized="1"
   inkscape:current-layer="Capa_1" />
<g
   id="g3822">
	<g
   id="g3820">
		<path
   d="M185.379,273.655h-70.621c-4.873,0-8.828,3.955-8.828,8.828v211.862c0,4.873,3.955,8.828,8.828,8.828h70.621    c4.873,0,8.828-3.955,8.828-8.828V282.483C194.207,277.61,190.252,273.655,185.379,273.655z M176.552,485.517h-52.966V291.31    h52.966V485.517z"
   id="path3818" />
	</g>
</g>
<g
   id="g3828">
	<g
   id="g3826">
		<path
   d="M291.31,185.379H220.69c-4.873,0-8.828,3.955-8.828,8.828v300.138c0,4.873,3.955,8.828,8.828,8.828h70.621    c4.873,0,8.828-3.955,8.828-8.828V194.207C300.138,189.334,296.183,185.379,291.31,185.379z M282.483,485.517h-52.965h0V203.034    h52.966V485.517z"
   id="path3824" />
	</g>
</g>
<g
   id="g3834">
	<g
   id="g3832">
		<path
   d="M397.241,97.103h-70.621c-4.873,0-8.828,3.955-8.828,8.828v388.414c0,4.873,3.955,8.828,8.828,8.828h70.621    c4.873,0,8.828-3.955,8.828-8.828V105.931C406.069,101.058,402.114,97.103,397.241,97.103z M388.414,485.517h-52.966V114.759    h52.966V485.517z"
   id="path3830" />
	</g>
</g>
<g
   id="g3840">
	<g
   id="g3838">
		<path
   d="M503.172,8.828h-70.621c-4.873,0-8.828,3.955-8.828,8.828v476.69c0,4.873,3.955,8.828,8.828,8.828h70.621    c4.873,0,8.828-3.955,8.828-8.828V17.655C512,12.782,508.045,8.828,503.172,8.828z M494.345,485.517h-52.966V26.483h52.966    V485.517z"
   id="path3836" />
	</g>
</g>
<g
   id="g3846">
	<g
   id="g3844">
		<path
   d="M79.448,361.931H8.828c-4.873,0-8.828,3.955-8.828,8.828v123.586c0,4.873,3.955,8.828,8.828,8.828h70.621    c4.873,0,8.828-3.955,8.828-8.828V370.759C88.276,365.886,84.321,361.931,79.448,361.931z M70.621,485.517H17.655V379.586h52.966    V485.517z"
   id="path3842" />
	</g>
</g>
<g
   id="g3848">
</g>
<g
   id="g3850">
</g>
<g
   id="g3852">
</g>
<g
   id="g3854">
</g>
<g
   id="g3856">
</g>
<g
   id="g3858">
</g>
<g
   id="g3860">
</g>
<g
   id="g3862">
</g>
<g
   id="g3864">
</g>
<g
   id="g3866">
</g>
<g
   id="g3868">
</g>
<g
   id="g3870">
</g>
<g
   id="g3872">
</g>
<g
   id="g3874">
</g>
<g
   id="g3876">
</g>
<path
   style="stroke-width:0.85049832"
   d="m 17.860465,432.39336 v -52.7309 h 26.365449 26.365448 v 52.7309 52.73089 H 44.225914 17.860465 Z"
   id="path3885"
   inkscape:connector-curvature="0" /><path
   style="stroke-width:0.85049832"
   d="m 30.830565,379.0262 c 7.367442,-0.14159 19.423256,-0.14159 26.790697,0 7.367442,0.14159 1.339535,0.25743 -13.395348,0.25743 -14.734884,0 -20.762791,-0.11584 -13.395349,-0.25743 z"
   id="path3887"
   inkscape:connector-curvature="0" /><path
   style="stroke-width:0.85049832"
   d="M 4.5173086,501.32478 C 2.6950232,500.21366 1.5108116,498.61043 0.90743384,496.4376 -0.06785582,492.92547 -0.42149813,374.32809 0.52914528,369.57487 0.82017518,368.11972 2.0205376,365.9669 3.1966173,364.79082 l 2.1383268,-2.13833 h 38.6471209 38.64712 l 2.486069,2.48607 2.486075,2.48608 -0.01892,64.91592 c -0.01752,60.22268 -0.125143,65.04707 -1.488372,66.73 -2.957926,3.65162 -3.667597,3.71429 -42.02484,3.71098 -34.9878197,-0.003 -36.9763095,-0.0863 -39.5518934,-1.65676 z M 44.438538,485.33733 17.860465,485.10002 v -52.70666 -52.70667 l 26.365721,-0.24321 26.36572,-0.24322 -26.578345,0.0185 -26.578345,0.0185 -0.219014,53.36877 -0.219016,53.36877 27.009713,-0.20006 27.009712,-0.20006 z"
   id="path3889"
   inkscape:connector-curvature="0" /><path
   style="stroke-width:0.85049832"
   d="M 4.5173086,501.32478 C 2.6950232,500.21366 1.5108116,498.61043 0.90743384,496.4376 -0.06785582,492.92547 -0.42149813,374.32809 0.52914528,369.57487 0.82017518,368.11972 2.0205376,365.9669 3.1966173,364.79082 l 2.1383268,-2.13833 H 44.18277 83.030596 l 2.285367,2.38541 2.285366,2.38541 v 64.85987 c 0,42.85839 -0.297054,65.41492 -0.875707,66.49616 -2.187507,4.08739 -3.387743,4.20559 -42.670097,4.2022 -34.9742729,-0.003 -36.9626733,-0.0863 -39.5382164,-1.65676 z m 38.2266674,-15.98738 -24.870644,-0.23882 -0.225614,-52.93069 -0.225614,-52.93068 -0.206069,53.36877 -0.206068,53.36877 25.302325,-0.19927 25.302326,-0.19927 z"
   id="path3891"
   inkscape:connector-curvature="0" /><path
   style="stroke-width:0.85049832"
   d="M 4.5173086,501.32478 C 2.6950232,500.21366 1.5108116,498.61043 0.90743384,496.4376 -0.24790538,492.27709 -0.35082963,371.34046 0.79839622,368.31777 1.2375141,367.1628 2.457854,365.41563 3.5102625,364.43516 c 1.8847203,-1.75588 2.496486,-1.78267 40.7169015,-1.78267 h 38.803432 l 2.285367,2.38541 2.285366,2.38541 v 64.85987 c 0,42.85839 -0.297054,65.41492 -0.875707,66.49616 -2.187507,4.08739 -3.387743,4.20559 -42.670097,4.2022 -34.9742729,-0.003 -36.9626733,-0.0863 -39.5382164,-1.65676 z m 32.2749814,-15.98703 -18.915351,-0.246 -0.229306,-40.59504 -0.229306,-40.59505 -0.20418,41.03655 -0.20418,41.03654 19.348837,-0.1955 19.348837,-0.19551 z"
   id="path3893"
   inkscape:connector-curvature="0" /><path
   style="stroke-width:0.85049832"
   d="M 3.9937806,501.06832 C 2.7552663,500.0941 1.3309036,497.88234 0.82852997,496.15327 0.20374504,494.00291 -0.00428081,473.20725 0.17018633,430.34083 l 0.25506284,-62.6687 2.49799123,-2.60704 2.4979911,-2.60705 H 44.225914 83.030596 l 2.285367,2.38541 2.285366,2.38541 v 65.18178 65.18178 l -2.052057,2.3863 -2.052048,2.3863 -38.6258,0.23729 C 6.8412453,502.83596 6.2109006,502.8123 3.9937806,501.06832 Z m 27.6997224,-15.92431 -13.808158,-0.25622 -0.238011,-25.70657 -0.238011,-25.70657 -0.199678,26.15282 -0.199678,26.15283 14.245847,-0.19003 14.245847,-0.19003 z"
   id="path3895"
   inkscape:connector-curvature="0" /><path
   style="stroke-width:0.85049832"
   d="M 3.9624095,501.04364 C 2.7411493,500.083 1.3309036,497.88234 0.82852997,496.15327 0.20374504,494.00291 -0.00428081,473.20725 0.17018633,430.34083 l 0.25506284,-62.6687 2.49799123,-2.60704 2.4979911,-2.60705 H 44.225914 83.030596 l 2.285367,2.38541 2.285366,2.38541 v 65.29463 65.29463 l -2.486075,2.48607 -2.486069,2.48608 H 44.406034 c -37.2681689,0 -38.2786286,-0.0436 -40.4436245,-1.74663 z m 23.0595745,-15.8978 -9.124196,-0.27321 -0.251223,-15.91826 -0.251224,-15.91826 -0.192687,16.3721 -0.192687,16.37209 9.568106,-0.18063 9.568106,-0.18063 z"
   id="path3897"
   inkscape:connector-curvature="0" /><path
   style="stroke-width:0.85049832"
   d="M 3.9624095,501.04364 C 2.7411493,500.083 1.3309036,497.88234 0.82852997,496.15327 0.20374504,494.00291 -0.00428081,473.20725 0.17018633,430.34083 l 0.25506284,-62.6687 2.49799123,-2.60704 2.4979911,-2.60705 H 44.225914 83.030596 l 2.285367,2.38541 2.285366,2.38541 v 65.29463 65.29463 l -2.486075,2.48607 -2.486069,2.48608 H 44.406034 c -37.2681689,0 -38.2786286,-0.0436 -40.4436245,-1.74663 z m 19.6664165,-15.8934 -5.713367,-0.29691 -0.270946,-9.52987 -0.270948,-9.52987 -0.181799,9.99335 -0.181799,9.99336 6.166113,-0.16658 6.166113,-0.16658 z"
   id="path3899"
   inkscape:connector-curvature="0" /><path
   style="stroke-width:0.85049832"
   d="M 3.2027867,500.30883 0.42524917,497.8274 0.19201914,433.17253 -0.04121098,368.51765 2.6189945,365.48785 5.2792,362.45804 h 38.875698 38.875698 l 2.285367,2.38541 2.285366,2.38541 v 65.39529 65.3953 l -2.285366,2.38541 -2.285367,2.38541 H 44.50546 5.9803242 Z m 18.3086053,-15.1495 -3.57831,-0.32378 -0.292566,-6.11899 -0.292566,-6.11899 -0.168992,6.59137 -0.168991,6.59136 4.039867,-0.14859 4.039867,-0.14858 z"
   id="path3901"
   inkscape:connector-curvature="0" /><path
   style="stroke-width:0.85049832"
   d="M 3.2027867,500.30883 0.42524917,497.8274 0.19182046,432.9688 -0.04160816,368.11019 2.6975304,365.28411 5.4366691,362.45804 H 44.233633 83.030596 l 2.285367,2.38541 2.285366,2.38541 v 65.39529 65.3953 l -2.285366,2.38541 -2.285367,2.38541 H 44.50546 5.9803242 Z M 20.243803,485.17542 c -2.059102,-0.31413 -2.326852,-0.75897 -2.610818,-4.33769 l -0.316417,-3.98766 -0.153301,4.46511 -0.1533,4.46512 2.764119,-0.12743 c 2.507239,-0.11559 2.550892,-0.15996 0.469717,-0.47745 z"
   id="path3903"
   inkscape:connector-curvature="0" /><path
   style="stroke-width:0.85049832"
   d="M 3.2027867,500.30878 0.42524917,497.82728 0.196868,432.96353 -0.03151309,368.09977 2.702578,365.27891 5.4366691,362.45804 H 44.233633 83.030596 l 2.285367,2.38541 2.285366,2.38541 v 65.39529 65.3953 l -2.285366,2.38541 -2.285367,2.38541 H 44.50546 5.9803242 Z M 19.39879,485.20365 c -0.865138,-0.22815 -1.573564,-1.45995 -1.777511,-3.09071 -0.325777,-2.60493 -0.344433,-2.58616 -0.475201,0.47799 -0.119788,2.80687 0.09339,3.17754 1.77751,3.09071 1.359722,-0.0701 1.497269,-0.20846 0.475202,-0.47799 z"
   id="path3905"
   inkscape:connector-curvature="0" /><path
   style="stroke-width:0.85049832"
   d="M 2.8916944,499.89857 0,497.00688 v -64.56147 -64.56147 l 2.652413,-2.71295 2.652413,-2.71295 h 38.862885 38.862885 l 2.285367,2.38541 2.285366,2.38541 v 65.39529 65.3953 l -2.285366,2.38541 -2.285367,2.38541 H 44.406992 5.7833887 Z M 19.021975,485.1294 c -0.530604,-0.34367 -1.155975,-1.3903 -1.389712,-2.32585 -0.325733,-1.30376 -0.448018,-1.15479 -0.523638,0.63788 -0.07182,1.70252 0.306292,2.33532 1.389714,2.32585 0.944573,-0.009 1.135891,-0.24132 0.523636,-0.63788 z"
   id="path3907"
   inkscape:connector-curvature="0" /><path
   style="stroke-width:0.85049832"
   d="M 2.7183346,499.98565 0,497.18105 V 432.5325 367.88394 l 2.652413,-2.71295 2.652413,-2.71295 h 38.862885 38.862885 l 2.285367,2.38541 2.285366,2.38541 v 65.39529 65.3953 l -2.285366,2.38541 -2.285367,2.38541 H 44.233633 5.4366691 Z M 18.923588,485.21703 c -0.584718,-0.23594 -1.063123,-1.03496 -1.063123,-1.7756 0,-0.74064 -0.238643,-1.10798 -0.530319,-0.8163 -0.829703,0.8297 0.353995,3.16275 1.566749,3.08802 0.853596,-0.0526 0.859381,-0.16012 0.0267,-0.49612 z"
   id="path3909"
   inkscape:connector-curvature="0" /><path
   style="stroke-width:0.85049832"
   d="M 2.7183346,499.98565 0,497.18105 V 432.5325 367.88394 l 2.652413,-2.71295 2.652413,-2.71295 h 38.862885 38.862885 l 2.285367,2.38541 2.285366,2.38541 v 65.39529 65.3953 l -2.285366,2.38541 -2.285367,2.38541 H 44.233633 5.4366691 Z M 18.153953,484.46787 c -0.276995,-0.72184 -0.686032,-1.13002 -0.908971,-0.90708 -0.22294,0.22294 -0.153071,0.81353 0.155262,1.31243 0.838634,1.35693 1.328802,1.09332 0.753709,-0.40535 z"
   id="path3911"
   inkscape:connector-curvature="0" /><path
   style="stroke-width:0.85049832"
   d="M 2.7183346,499.98565 0,497.18105 v -64.72007 -64.72006 l 2.4674741,-2.64144 2.4674741,-2.64144 H 43.982772 83.030596 l 2.285367,2.38541 2.285366,2.38541 v 65.39529 65.3953 l -2.285366,2.38541 -2.285367,2.38541 H 44.233633 5.4366691 Z M 18.153953,484.46787 c -0.276995,-0.72184 -0.686032,-1.13002 -0.908971,-0.90708 -0.22294,0.22294 -0.153071,0.81353 0.155262,1.31243 0.838634,1.35693 1.328802,1.09332 0.753709,-0.40535 z"
   id="path3913"
   inkscape:connector-curvature="0" /><path
   style="stroke-width:0.85049832"
   d="M 2.7183346,499.98565 0,497.18105 v -64.51711 -64.5171 l 2.1695288,-2.8444 2.1695288,-2.8444 H 43.684827 83.030596 l 2.285367,2.38541 2.285366,2.38541 v 65.39529 65.3953 l -2.285366,2.38541 -2.285367,2.38541 H 44.233633 5.4366691 Z"
   id="path3915"
   inkscape:connector-curvature="0" /><path
   style="stroke-width:0.85049832"
   d="M 2.7183346,499.98565 0,497.18105 v -64.51711 -64.5171 l 2.1695288,-2.8444 2.1695288,-2.8444 H 43.684827 83.030596 l 2.285367,2.38541 2.285366,2.38541 v 65.39529 65.3953 l -2.285366,2.38541 -2.285367,2.38541 H 44.233633 5.4366691 Z"
   id="path3917"
   inkscape:connector-curvature="0" /><path
   style="stroke-width:0.85049832"
   d="M 2.7183346,499.98565 0,497.18105 v -64.51711 -64.5171 l 2.1695288,-2.8444 2.1695288,-2.8444 H 43.684827 83.030596 l 2.285367,2.38541 2.285366,2.38541 v 65.39529 65.3953 l -2.285366,2.38541 -2.285367,2.38541 H 44.233633 5.4366691 Z"
   id="path3919"
   inkscape:connector-curvature="0" /><path
   style="stroke-width:0.85049832"
   d="M 2.7183346,499.98565 0,497.18105 v -64.74476 -64.74475 l 2.2018497,-2.61675 2.2018498,-2.61675 H 43.916879 83.43006 l 2.085634,2.25044 2.085635,2.25044 v 65.53026 65.53027 l -2.285366,2.38541 -2.285367,2.38541 H 44.233633 5.4366691 Z"
   id="path3921"
   inkscape:connector-curvature="0" /><path
   style="stroke-width:0.85049832"
   d="M 2.7183346,499.98565 0,497.18105 v -64.74476 -64.74475 l 2.2018497,-2.61675 2.2018498,-2.61675 H 44.243603 84.083506 l 1.758916,2.47016 c 1.741574,2.44583 1.758907,3.11506 1.758907,67.92389 v 65.45373 l -2.24222,2.24223 -2.242226,2.24222 H 44.276776 5.4366691 Z"
   id="path3923"
   inkscape:connector-curvature="0" /><path
   style="stroke-width:0.85049832"
   d="M 2.7183346,499.98565 0,497.18105 v -64.9761 -64.97609 l 2.2853666,-2.38541 2.2853666,-2.38541 H 44.323305 84.075877 l 1.762726,2.24094 c 1.748744,2.22317 1.762726,2.76204 1.762726,67.92389 v 65.68295 l -2.24222,2.24223 -2.242226,2.24222 H 44.276776 5.4366691 Z"
   id="path3925"
   inkscape:connector-curvature="0" /><path
   style="stroke-width:0.85049832"
   d="M 2.7183346,499.98565 0,497.18105 v -64.9761 -64.97609 l 2.2853666,-2.38541 2.2853666,-2.38541 H 44.323305 84.075877 l 1.762726,2.24094 c 1.748625,2.22301 1.762726,2.76471 1.762726,67.69595 0,64.81013 -0.01735,65.47934 -1.758907,67.92517 l -1.758916,2.47017 H 44.760089 5.4366691 Z"
   id="path3927"
   inkscape:connector-curvature="0" /><path
   style="stroke-width:0.85049832"
   d="m 124.17276,388.39824 v -96.53156 h 25.9402 25.9402 v 96.53156 96.53156 h -25.9402 -25.9402 z"
   id="path3948"
   inkscape:connector-curvature="0" /><path
   style="stroke-width:0.85049832"
   d="m 109.20399,499.89857 -2.8917,-2.89169 V 388.39824 279.7896 l 2.8917,-2.89169 2.89169,-2.8917 h 38.01728 38.01727 l 2.8917,2.8917 2.89169,2.89169 v 108.60864 108.60864 l -2.89169,2.89169 -2.8917,2.8917 h -38.01727 -38.01728 z m 67.69966,-111.50033 v -97.38206 h -26.79069 -26.7907 v 97.38206 97.38206 h 26.7907 26.79069 z"
   id="path3950"
   inkscape:connector-curvature="0" /><path
   style="stroke-width:0.85049832"
   d="m 124.17276,388.39824 v -96.53156 h 25.9402 25.9402 v 96.53156 96.53156 h -25.9402 -25.9402 z"
   id="path3952"
   inkscape:connector-curvature="0" /><path
   style="stroke-width:0.85049832"
   d="m 109.20399,499.89857 -2.8917,-2.89169 V 388.39824 279.7896 l 2.8917,-2.89169 2.89169,-2.8917 h 38.01728 38.01727 l 2.8917,2.8917 2.89169,2.89169 v 108.60864 108.60864 l -2.89169,2.89169 -2.8917,2.8917 h -38.01727 -38.01728 z m 67.69966,-111.50033 v -97.38206 h -26.79069 -26.7907 v 97.38206 97.38206 h 26.7907 26.79069 z"
   id="path3954"
   inkscape:connector-curvature="0" /><path
   style="stroke-width:0.85049832"
   d="m 109.03063,499.98565 -2.71834,-2.8046 V 388.31196 279.44288 l 2.80461,-2.71833 2.80461,-2.71834 h 38.27772 38.27772 l 2.71833,2.80461 2.71834,2.80461 V 388.48451 497.3536 l -2.80461,2.71833 -2.80461,2.71834 h -38.27772 -38.27772 z m 67.87302,-111.58741 v -97.38206 h -26.79069 -26.7907 v 97.38206 97.38206 h 26.7907 26.79069 z"
   id="path3956"
   inkscape:connector-curvature="0" /><path
   style="stroke-width:0.85049832"
   d="m 108.96471,500.07731 -2.65242,-2.71295 V 388.40362 279.44288 l 2.80461,-2.71833 2.80461,-2.71834 h 38.27772 38.27772 l 2.71833,2.80461 2.71834,2.80461 V 388.48451 497.3536 l -2.80461,2.71833 -2.80461,2.71834 h -38.34364 -38.34364 z m 67.93894,-111.67907 v -97.38206 h -26.79069 -26.7907 v 97.38206 97.38206 h 26.7907 26.79069 z"
   id="path3958"
   inkscape:connector-curvature="0" /><path
   style="stroke-width:0.85049832"
   d="m 108.92921,500.17335 -2.61692,-2.61692 V 388.49965 279.44288 l 2.80461,-2.71833 2.80461,-2.71834 h 38.27772 38.27772 l 2.71833,2.80461 2.71834,2.80461 V 388.48451 497.3536 l -2.80461,2.71833 -2.80461,2.71834 h -38.37913 -38.37914 z m 67.97444,-111.77511 v -97.38206 h -26.79069 -26.7907 v 97.38206 97.38206 h 26.7907 26.79069 z"
   id="path3960"
   inkscape:connector-curvature="0" /><path
   style="stroke-width:0.85049832"
   d="m 108.92921,500.17335 -2.61692,-2.61692 V 388.39824 279.24005 l 2.61692,-2.61692 2.61692,-2.61692 h 38.46541 38.46541 l 2.71833,2.80461 2.71834,2.80461 V 388.48451 497.3536 l -2.80461,2.71833 -2.80461,2.71834 h -38.37913 -38.37914 z m 67.97444,-111.77511 v -97.38206 h -26.79069 -26.7907 v 97.38206 97.38206 h 26.7907 26.79069 z"
   id="path3962"
   inkscape:connector-curvature="0" /><path
   style="stroke-width:0.85049832"
   d="m 108.92921,500.17335 -2.61692,-2.61692 V 388.39824 279.24005 l 2.61692,-2.61692 2.61692,-2.61692 h 38.46541 38.46541 l 2.71833,2.80461 2.71834,2.80461 V 388.48451 497.3536 l -2.80461,2.71833 -2.80461,2.71834 h -38.37913 -38.37914 z m 67.97444,-111.77511 v -97.38206 h -26.79069 -26.7907 v 97.38206 97.38206 h 26.7907 26.79069 z"
   id="path3964"
   inkscape:connector-curvature="0" /><path
   style="stroke-width:0.85049832"
   d="m 108.79836,500.30419 -2.48607,-2.48607 V 388.37964 278.94116 l 2.64144,-2.46747 2.64144,-2.46748 h 38.50681 38.50682 l 2.65241,2.71295 2.65241,2.71296 v 109.06215 109.06216 l -2.61691,2.61692 -2.61692,2.61692 h -38.69768 -38.69767 z m 68.10529,-111.90595 v -97.38206 h -26.79069 -26.7907 v 97.38206 97.38206 h 26.7907 26.79069 z"
   id="path3966"
   inkscape:connector-curvature="0" /><path
   style="stroke-width:0.85049832"
   d="m 108.79836,500.30419 -2.48607,-2.48607 V 388.39824 278.97836 l 2.48607,-2.48608 2.48608,-2.48607 h 38.69767 38.69768 l 2.61692,2.61692 2.61691,2.61692 v 109.15819 109.15819 l -2.61691,2.61692 -2.61692,2.61692 h -38.69768 -38.69767 z m 68.10529,-111.90595 v -97.38206 h -26.79069 -26.7907 v 97.38206 97.38206 h 26.7907 26.79069 z"
   id="path3968"
   inkscape:connector-curvature="0" /><path
   style="stroke-width:0.85049832"
   d="m 108.59766,500.40486 -2.28537,-2.38541 V 388.21468 278.40991 l 2.61675,-2.20185 2.61675,-2.20185 h 38.567 38.567 l 2.61692,2.61692 2.61691,2.61692 v 109.15819 109.15819 l -2.61691,2.61692 -2.61692,2.61692 h -38.89838 -38.89838 z m 68.30599,-112.00662 v -97.38206 h -26.79069 -26.7907 v 97.38206 97.38206 h 26.7907 26.79069 z"
   id="path3970"
   inkscape:connector-curvature="0" /><path
   style="stroke-width:0.85049832"
   d="m 108.59766,500.40486 -2.28537,-2.38541 V 388.39824 278.77703 l 2.28537,-2.38541 2.28537,-2.38541 h 39.04782 39.04782 l 2.46748,2.64144 2.46747,2.64144 v 109.26452 109.26451 l -2.48607,2.48607 -2.48607,2.48608 h -39.02923 -39.02922 z m 68.30599,-112.00662 v -97.38206 h -26.79069 -26.7907 v 97.38206 97.38206 h 26.7907 26.79069 z"
   id="path3972"
   inkscape:connector-curvature="0" /><path
   style="stroke-width:0.85049832"
   d="m 108.59766,500.40486 -2.28537,-2.38541 V 388.39824 278.77703 l 2.28537,-2.38541 2.28537,-2.38541 h 39.31344 39.31345 l 2.20185,2.61675 2.20185,2.61675 v 109.38987 109.38987 l -2.28536,2.38541 -2.28537,2.38541 h -39.22993 -39.22993 z m 68.30599,-112.00662 v -97.38206 h -26.79069 -26.7907 v 97.38206 97.38206 h 26.7907 26.79069 z"
   id="path3974"
   inkscape:connector-curvature="0" /><path
   style="stroke-width:0.85049832"
   d="m 108.59766,500.40486 -2.28537,-2.38541 V 388.39824 278.77703 l 2.28537,-2.38541 2.28537,-2.38541 h 39.31344 39.31345 l 2.20185,2.61675 2.20185,2.61675 v 109.38987 109.38987 l -2.28536,2.38541 -2.28537,2.38541 h -39.22993 -39.22993 z m 68.30599,-112.00662 v -97.38206 h -26.79069 -26.7907 v 97.38206 97.38206 h 26.7907 26.79069 z"
   id="path3976"
   inkscape:connector-curvature="0" /><path
   style="stroke-width:0.85049832"
   d="m 108.59766,500.40486 -2.28537,-2.38541 V 388.39824 278.77703 l 2.28537,-2.38541 2.28537,-2.38541 h 39.22993 39.22993 l 2.28537,2.38541 2.28536,2.38541 v 109.62121 109.62121 l -2.28536,2.38541 -2.28537,2.38541 h -39.22993 -39.22993 z m 68.30599,-112.00662 v -97.38206 h -26.79069 -26.7907 v 97.38206 97.38206 h 26.7907 26.79069 z"
   id="path3978"
   inkscape:connector-curvature="0" /><path
   style="stroke-width:0.85049832"
   d="m 108.59766,500.40486 -2.28537,-2.38541 V 388.39824 278.77703 l 2.28537,-2.38541 2.28537,-2.38541 h 39.22993 39.22993 l 2.28537,2.38541 2.28536,2.38541 v 109.62121 109.62121 l -2.28536,2.38541 -2.28537,2.38541 h -39.22993 -39.22993 z m 68.30599,-112.00662 v -97.38206 h -26.79069 -26.7907 v 97.38206 97.38206 h 26.7907 26.79069 z"
   id="path3980"
   inkscape:connector-curvature="0" /><path
   style="stroke-width:0.85049832"
   d="m 108.59766,500.40486 -2.28537,-2.38541 V 388.39824 278.77703 l 2.28537,-2.38541 2.28537,-2.38541 h 39.22993 39.22993 l 2.28537,2.38541 2.28536,2.38541 v 109.62121 109.62121 l -2.28536,2.38541 -2.28537,2.38541 h -39.22993 -39.22993 z m 68.30599,-112.00662 v -97.38206 h -26.79069 -26.7907 v 97.38206 97.38206 h 26.7907 26.79069 z"
   id="path3982"
   inkscape:connector-curvature="0" /><path
   style="stroke-width:0.85049832"
   d="m 108.59766,500.40486 -2.28537,-2.38541 V 388.39824 278.77703 l 2.28537,-2.38541 2.28537,-2.38541 h 39.22993 39.22993 l 2.28537,2.38541 2.28536,2.38541 v 109.62121 109.62121 l -2.28536,2.38541 -2.28537,2.38541 h -39.22993 -39.22993 z m 68.30599,-112.00662 v -97.38206 h -26.79069 -26.7907 v 97.38206 97.38206 h 26.7907 26.79069 z"
   id="path3984"
   inkscape:connector-curvature="0" /><path
   style="stroke-width:0.85049832"
   d="m 108.59766,500.40486 -2.28537,-2.38541 V 388.39824 278.77703 l 2.28537,-2.38541 2.28537,-2.38541 h 39.22993 39.22993 l 2.28537,2.38541 2.28536,2.38541 v 109.62121 109.62121 l -2.28536,2.38541 -2.28537,2.38541 h -39.22993 -39.22993 z m 68.30599,-112.00662 v -97.38206 h -26.79069 -26.7907 v 97.38206 97.38206 h 26.7907 26.79069 z"
   id="path3986"
   inkscape:connector-curvature="0" /><path
   style="stroke-width:0.85049832"
   d="m 108.59766,500.40486 -2.28537,-2.38541 V 388.39824 278.77703 l 2.28537,-2.38541 2.28537,-2.38541 h 39.22993 39.22993 l 2.28537,2.38541 2.28536,2.38541 v 109.62121 109.62121 l -2.28536,2.38541 -2.28537,2.38541 h -39.22993 -39.22993 z m 68.30599,-112.00662 v -97.38206 h -26.79069 -26.7907 v 97.38206 97.38206 h 26.7907 26.79069 z"
   id="path3988"
   inkscape:connector-curvature="0" /><path
   style="stroke-width:0.85049832"
   d="m 108.59766,500.40486 -2.28537,-2.38541 V 388.39824 278.77703 l 2.28537,-2.38541 2.28537,-2.38541 h 39.22993 39.22993 l 2.28537,2.38541 2.28536,2.38541 v 109.62121 109.62121 l -2.28536,2.38541 -2.28537,2.38541 h -39.22993 -39.22993 z m 68.30599,-112.00662 v -97.38206 h -26.79069 -26.7907 v 97.38206 97.38206 h 26.7907 26.79069 z"
   id="path3990"
   inkscape:connector-curvature="0" /><path
   style="stroke-width:0.85049832"
   d="m 108.59766,500.40486 -2.28537,-2.38541 V 388.39824 278.77703 l 2.28537,-2.38541 2.28537,-2.38541 h 39.22993 39.22993 l 2.28537,2.38541 2.28536,2.38541 v 109.62121 109.62121 l -2.28536,2.38541 -2.28537,2.38541 h -39.22993 -39.22993 z m 68.30599,-112.00662 v -97.38206 h -26.79069 -26.7907 v 97.38206 97.38206 h 26.7907 26.79069 z"
   id="path3992"
   inkscape:connector-curvature="0" /><path
   style="stroke-width:0.85049832"
   d="m 108.59766,500.40486 -2.28537,-2.38541 V 388.39824 278.77703 l 2.28537,-2.38541 2.28537,-2.38541 h 39.22993 39.22993 l 2.28537,2.38541 2.28536,2.38541 v 109.62121 109.62121 l -2.28536,2.38541 -2.28537,2.38541 h -39.22993 -39.22993 z m 68.30599,-112.00662 v -97.38206 h -26.79069 -26.7907 v 97.38206 97.38206 h 26.7907 26.79069 z"
   id="path3994"
   inkscape:connector-curvature="0" /><path
   style="stroke-width:0.85049832"
   d="m 108.59766,500.40486 -2.28537,-2.38541 V 388.39824 278.77703 l 2.28537,-2.38541 2.28537,-2.38541 h 39.22993 39.22993 l 2.28537,2.38541 2.28536,2.38541 v 109.62121 109.62121 l -2.28536,2.38541 -2.28537,2.38541 h -39.22993 -39.22993 z m 68.30599,-112.00662 v -97.38206 h -26.79069 -26.7907 v 97.38206 97.38206 h 26.7907 26.79069 z"
   id="path3996"
   inkscape:connector-curvature="0" /><path
   style="stroke-width:0.85049832"
   d="m 108.59766,500.40486 -2.28537,-2.38541 V 388.39824 278.77703 l 2.28537,-2.38541 2.28537,-2.38541 h 39.22993 39.22993 l 2.28537,2.38541 2.28536,2.38541 v 109.62121 109.62121 l -2.28536,2.38541 -2.28537,2.38541 h -39.22993 -39.22993 z m 68.30599,-112.00662 v -97.38206 h -26.79069 -26.7907 v 97.38206 97.38206 h 26.7907 26.79069 z"
   id="path3998"
   inkscape:connector-curvature="0" /><path
   style="stroke-width:0.85049832"
   d="m 108.59766,500.40486 -2.28537,-2.38541 V 388.39824 278.77703 l 2.28537,-2.38541 2.28537,-2.38541 h 39.22993 39.22993 l 2.28537,2.38541 2.28536,2.38541 v 109.62121 109.62121 l -2.28536,2.38541 -2.28537,2.38541 h -39.22993 -39.22993 z m 68.30599,-112.00662 v -97.38206 h -26.79069 -26.7907 v 97.38206 97.38206 h 26.7907 26.79069 z"
   id="path4000"
   inkscape:connector-curvature="0" /><path
   style="stroke-width:0.85049832"
   d="m 108.59766,500.40486 -2.28537,-2.38541 V 388.39824 278.77703 l 2.28537,-2.38541 2.28537,-2.38541 h 39.22993 39.22993 l 2.28537,2.38541 2.28536,2.38541 v 109.62121 109.62121 l -2.28536,2.38541 -2.28537,2.38541 h -39.22993 -39.22993 z m 68.30599,-112.00662 v -97.38206 h -26.79069 -26.7907 v 97.38206 97.38206 h 26.7907 26.79069 z"
   id="path4002"
   inkscape:connector-curvature="0" /><path
   style="stroke-width:0.85049832"
   d="m 108.22591,500.26982 -1.91362,-2.42632 V 388.31026 278.77703 l 2.28537,-2.38541 2.28537,-2.38541 h 39.42984 39.42985 l 2.05857,2.33887 2.05858,2.33887 0.0269,109.66775 0.0269,109.66775 -2.28536,2.38541 -2.28537,2.38541 -39.60168,-0.0471 -39.60168,-0.0471 z m 68.67774,-111.87158 v -97.38206 h -26.79069 -26.7907 v 97.38206 97.38206 h 26.7907 26.79069 z"
   id="path4004"
   inkscape:connector-curvature="0" /><path
   style="stroke-width:0.85049832"
   d="m 108.17323,500.27321 -1.86094,-2.51705 0.0269,-109.53611 0.0269,-109.5361 2.05857,-2.33887 2.05857,-2.33887 h 39.62977 39.62976 l 2.05857,2.33887 2.05858,2.33887 v 109.71429 109.71428 l -2.05858,2.33888 -2.05857,2.33887 h -39.85427 -39.85428 z m 68.73042,-111.87497 v -97.38206 h -26.79069 -26.7907 v 97.38206 97.38206 h 26.7907 26.79069 z"
   id="path4006"
   inkscape:connector-curvature="0" /><path
   style="stroke-width:0.85049832"
   d="m 108.0712,500.3201 c -1.75629,-2.46649 -1.75891,-2.63268 -1.75891,-111.87496 V 279.04032 l 1.86094,-2.51705 1.86094,-2.51706 h 40.07879 40.07878 l 1.86094,2.51706 1.86094,2.51705 v 109.35792 109.35792 l -1.86094,2.51705 -1.86094,2.51706 h -40.18081 -40.18082 z m 68.83245,-111.92186 v -97.38206 h -26.79069 -26.7907 v 97.38206 97.38206 h 26.7907 26.79069 z"
   id="path4008"
   inkscape:connector-curvature="0" /><path
   style="stroke-width:0.85049832"
   d="m 108.0712,500.3201 c -1.7563,-2.4665 -1.75891,-2.63216 -1.75891,-111.92186 0,-109.2897 0.003,-109.45536 1.75891,-111.92187 l 1.75891,-2.47016 h 40.28285 40.28284 l 1.75891,2.47016 c 1.75631,2.46651 1.75891,2.63217 1.75891,111.92187 0,109.2897 -0.003,109.45536 -1.75891,111.92186 l -1.75891,2.47017 h -40.28284 -40.28285 z m 68.83245,-111.92186 v -97.38206 h -26.79069 -26.7907 v 97.38206 97.38206 h 26.7907 26.79069 z"
   id="path4010"
   inkscape:connector-curvature="0" /><path
   style="stroke-width:0.85049832"
   d="m 108.0712,500.3201 c -1.7563,-2.4665 -1.75891,-2.63216 -1.75891,-111.92186 0,-109.2897 0.003,-109.45536 1.75891,-111.92187 l 1.75891,-2.47016 h 40.28285 40.28284 l 1.75891,2.47016 c 1.75631,2.46651 1.75891,2.63217 1.75891,111.92187 0,109.2897 -0.003,109.45536 -1.75891,111.92186 l -1.75891,2.47017 h -40.28284 -40.28285 z m 68.83245,-111.92186 v -97.38206 h -26.79069 -26.7907 v 97.38206 97.38206 h 26.7907 26.79069 z"
   id="path4012"
   inkscape:connector-curvature="0" /><path
   style="stroke-width:0.85049832"
   d="m 108.07502,500.54932 c -1.76261,-2.24079 -1.76273,-2.24844 -1.76273,-111.92186 0,-109.52143 0.003,-109.68451 1.75891,-112.15109 l 1.75891,-2.47016 h 40.28285 40.28284 l 1.75891,2.47016 c 1.75635,2.46658 1.75891,2.62966 1.75891,112.15109 0,109.67342 -1.2e-4,109.68107 -1.76272,111.92186 l -1.76273,2.24095 h -40.27521 -40.27522 z m 68.82863,-112.15108 v -97.38206 h -26.79069 -26.7907 v 97.38206 97.38206 h 26.7907 26.79069 z"
   id="path4014"
   inkscape:connector-curvature="0" /><path
   style="stroke-width:0.85049832"
   d="m 123.73324,388.39824 c -3e-5,-53.32625 0.10199,-75.26669 0.22672,-48.75654 0.12473,26.51016 0.12476,70.14072 6e-5,96.95681 -0.12469,26.8161 -0.22675,5.12597 -0.22678,-48.20027 z"
   id="path4016"
   inkscape:connector-curvature="0" /><path
   style="stroke-width:0.85049832"
   d="m 124.17276,388.39824 v -96.53156 h 25.9402 25.9402 v 96.53156 96.53156 h -25.9402 -25.9402 z"
   id="path4018"
   inkscape:connector-curvature="0" /><path
   style="stroke-width:0.85049832"
   d="m 124.17276,388.39824 v -96.53156 h 25.9402 25.9402 v 96.53156 96.53156 h -25.9402 -25.9402 z"
   id="path4020"
   inkscape:connector-curvature="0" /><path
   style="fill:none;stroke:#000000;stroke-width:1px;stroke-linecap:butt;stroke-linejoin:miter;stroke-opacity:1"
   d="m 124.17276,324.03987 c -0.2835,1.13399 -0.567,2.26799 -0.8505,3.40199 -0.2835,0 -0.65003,-0.20046 -0.8505,0 -0.20046,0.20046 0,0.567 0,0.8505 0,0.2835 0,0.567 0,0.8505 0,2.55149 0,5.10299 0,7.65448 0,1.4175 0,2.835 0,4.25249 0,0.567 -0.1793,1.1631 0,1.701 0.12679,0.38035 0.6712,0.4919 0.8505,0.8505 0.12678,0.25357 0,0.567 0,0.8505 0,0.2835 0,0.567 0,0.8505"
   id="path4022"
   inkscape:connector-curvature="0" /><path
   style="fill:none;stroke:#000000;stroke-width:1px;stroke-linecap:butt;stroke-linejoin:miter;stroke-opacity:1"
   d="m 124.17276,358.0598 -0.8505,127.7205"
   id="path4024"
   inkscape:connector-curvature="0" /><path
   style="fill:none;stroke:#000000;stroke-width:1px;stroke-linecap:butt;stroke-linejoin:miter;stroke-opacity:1"
   d="M 145.43522,415.04319 153.0897,358.0598"
   id="path4026"
   inkscape:connector-curvature="0" /><use
   id="use4028"
   inkscape:spray-origin="#path4026"
   xlink:href="#path4026"
   x="0"
   y="0"
   width="100%"
   height="100%"
   transform="translate(-19.097547,-0.9165547)" /><use
   id="use4030"
   inkscape:spray-origin="#path4026"
   xlink:href="#path4026"
   x="0"
   y="0"
   width="100%"
   height="100%"
   transform="translate(-29.555085,-11.603407)" /><use
   id="use4032"
   inkscape:spray-origin="#path4026"
   xlink:href="#path4026"
   x="0"
   y="0"
   width="100%"
   height="100%"
   transform="translate(21.324515,3.4702761)" /><use
   id="use4034"
   inkscape:spray-origin="#path4026"
   xlink:href="#path4026"
   x="0"
   y="0"
   width="100%"
   height="100%"
   transform="translate(-14.593072,11.801821)" /><use
   id="use4036"
   inkscape:spray-origin="#path4026"
   xlink:href="#path4026"
   x="0"
   y="0"
   width="100%"
   height="100%"
   transform="translate(9.3218522,-23.809943)" /><use
   id="use4038"
   inkscape:spray-origin="#path4026"
   xlink:href="#path4026"
   x="0"
   y="0"
   width="100%"
   height="100%"
   transform="translate(-22.320983,10.795776)" /><use
   id="use4040"
   inkscape:spray-origin="#path4026"
   xlink:href="#path4026"
   x="0"
   y="0"
   width="100%"
   height="100%"
   transform="translate(3.2066163,-3.2721283)" /><use
   id="use4042"
   inkscape:spray-origin="#path4026"
   xlink:href="#path4026"
   x="0"
   y="0"
   width="100%"
   height="100%"
   transform="translate(-21.813114,20.250592)" /><use
   id="use4044"
   inkscape:spray-origin="#path4026"
   xlink:href="#path4026"
   x="0"
   y="0"
   width="100%"
   height="100%"
   transform="translate(20.719078,11.9373)" /><use
   id="use4046"
   inkscape:spray-origin="#path4026"
   xlink:href="#path4026"
   x="0"
   y="0"
   width="100%"
   height="100%"
   transform="translate(-7.3006029,14.942309)" /><use
   id="use4048"
   inkscape:spray-origin="#path4026"
   xlink:href="#path4026"
   x="0"
   y="0"
   width="100%"
   height="100%"
   transform="translate(-2.7999079,-22.10087)" /><use
   id="use4050"
   inkscape:spray-origin="#path4026"
   xlink:href="#path4026"
   x="0"
   y="0"
   width="100%"
   height="100%"
   transform="translate(26.008991,-0.43109459)" /><use
   id="use4052"
   inkscape:spray-origin="#path4026"
   xlink:href="#path4026"
   x="0"
   y="0"
   width="100%"
   height="100%"
   transform="translate(2.7954769,-7.9538763)" /><use
   id="use4054"
   inkscape:spray-origin="#path4026"
   xlink:href="#path4026"
   x="0"
   y="0"
   width="100%"
   height="100%"
   transform="translate(7.2945626,2.4220025)" /><use
   id="use4056"
   inkscape:spray-origin="#path4026"
   xlink:href="#path4026"
   x="0"
   y="0"
   width="100%"
   height="100%"
   transform="translate(15.519427,-9.4574458)" /><use
   id="use4058"
   inkscape:spray-origin="#path4026"
   xlink:href="#path4026"
   x="0"
   y="0"
   width="100%"
   height="100%"
   transform="translate(-11.425685,14.126528)" /><use
   id="use4060"
   inkscape:spray-origin="#path4026"
   xlink:href="#path4026"
   x="0"
   y="0"
   width="100%"
   height="100%"
   transform="translate(3.1464862,-21.350713)" /><use
   id="use4062"
   inkscape:spray-origin="#path4026"
   xlink:href="#path4026"
   x="0"
   y="0"
   width="100%"
   height="100%"
   transform="translate(-17.81604,-30.488186)" /><use
   id="use4064"
   inkscape:spray-origin="#path4026"
   xlink:href="#path4026"
   x="0"
   y="0"
   width="100%"
   height="100%"
   transform="translate(3.8765045,-34.930112)" /><use
   id="use4066"
   inkscape:spray-origin="#path4026"
   xlink:href="#path4026"
   x="0"
   y="0"
   width="100%"
   height="100%"
   transform="translate(-18.054812,-20.412769)" /><use
   id="use4068"
   inkscape:spray-origin="#path4026"
   xlink:href="#path4026"
   x="0"
   y="0"
   width="100%"
   height="100%"
   transform="translate(-2.266645,-26.626967)" /><use
   id="use4070"
   inkscape:spray-origin="#path4026"
   xlink:href="#path4026"
   x="0"
   y="0"
   width="100%"
   height="100%"
   transform="translate(6.8281505,-25.542795)" /><use
   id="use4072"
   inkscape:spray-origin="#path4026"
   xlink:href="#path4026"
   x="0"
   y="0"
   width="100%"
   height="100%"
   transform="translate(-12.902744,-18.518374)" /><use
   id="use4074"
   inkscape:spray-origin="#path4026"
   xlink:href="#path4026"
   x="0"
   y="0"
   width="100%"
   height="100%"
   transform="translate(-23.022027,-23.79604)" /><use
   id="use4076"
   inkscape:spray-origin="#path4026"
   xlink:href="#path4026"
   x="0"
   y="0"
   width="100%"
   height="100%"
   transform="translate(6.2514283,-24.622182)" /><use
   id="use4078"
   inkscape:spray-origin="#path4026"
   xlink:href="#path4026"
   x="0"
   y="0"
   width="100%"
   height="100%"
   transform="translate(-18.808134,-23.349639)" /><use
   id="use4080"
   inkscape:spray-origin="#path4026"
   xlink:href="#path4026"
   x="0"
   y="0"
   width="100%"
   height="100%"
   transform="translate(-13.617081,3.4897486)" /><use
   id="use4082"
   inkscape:spray-origin="#path4026"
   xlink:href="#path4026"
   x="0"
   y="0"
   width="100%"
   height="100%"
   transform="translate(17.373341,-20.881201)" /><use
   id="use4084"
   inkscape:spray-origin="#path4026"
   xlink:href="#path4026"
   x="0"
   y="0"
   width="100%"
   height="100%"
   transform="translate(12.244022,-5.4114175)" /><use
   id="use4086"
   inkscape:spray-origin="#path4026"
   xlink:href="#path4026"
   x="0"
   y="0"
   width="100%"
   height="100%"
   transform="translate(-19.084857,-9.9273188)" /><use
   id="use4088"
   inkscape:spray-origin="#path4026"
   xlink:href="#path4026"
   x="0"
   y="0"
   width="100%"
   height="100%"
   transform="translate(10.469226,-21.360927)" /><use
   id="use4090"
   inkscape:spray-origin="#path4026"
   xlink:href="#path4026"
   x="0"
   y="0"
   width="100%"
   height="100%"
   transform="translate(10.158516,-7.8979363)" /><use
   id="use4092"
   inkscape:spray-origin="#path4026"
   xlink:href="#path4026"
   x="0"
   y="0"
   width="100%"
   height="100%"
   transform="translate(-6.9577543,-46.696661)" /><use
   id="use4094"
   inkscape:spray-origin="#path4026"
   xlink:href="#path4026"
   x="0"
   y="0"
   width="100%"
   height="100%"
   transform="translate(16.602415,-11.288013)" /><use
   id="use4096"
   inkscape:spray-origin="#path4026"
   xlink:href="#path4026"
   x="0"
   y="0"
   width="100%"
   height="100%"
   transform="translate(8.6460828,-36.925223)" /><use
   id="use4098"
   inkscape:spray-origin="#path4026"
   xlink:href="#path4026"
   x="0"
   y="0"
   width="100%"
   height="100%"
   transform="translate(-15.645069,-46.786174)" /><use
   id="use4100"
   inkscape:spray-origin="#path4026"
   xlink:href="#path4026"
   x="0"
   y="0"
   width="100%"
   height="100%"
   transform="translate(-15.037754,-28.285893)" /><use
   id="use4102"
   inkscape:spray-origin="#path4026"
   xlink:href="#path4026"
   x="0"
   y="0"
   width="100%"
   height="100%"
   transform="translate(8.3264968,-17.390888)" /><use
   id="use4104"
   inkscape:spray-origin="#path4026"
   xlink:href="#path4026"
   x="0"
   y="0"
   width="100%"
   height="100%"
   transform="translate(-19.855422,-25.047414)" /><use
   id="use4106"
   inkscape:spray-origin="#path4026"
   xlink:href="#path4026"
   x="0"
   y="0"
   width="100%"
   height="100%"
   transform="translate(-12.862838,-51.150446)" /><use
   id="use4108"
   inkscape:spray-origin="#path4026"
   xlink:href="#path4026"
   x="0"
   y="0"
   width="100%"
   height="100%"
   transform="translate(-11.944494,-20.614297)" /><use
   id="use4110"
   inkscape:spray-origin="#path4026"
   xlink:href="#path4026"
   x="0"
   y="0"
   width="100%"
   height="100%"
   transform="translate(-16.273798,-20.057584)" /><use
   id="use4112"
   inkscape:spray-origin="#path4026"
   xlink:href="#path4026"
   x="0"
   y="0"
   width="100%"
   height="100%"
   transform="translate(-17.601355,-45.428147)" /><use
   id="use4114"
   inkscape:spray-origin="#path4026"
   xlink:href="#path4026"
   x="0"
   y="0"
   width="100%"
   height="100%"
   transform="translate(-0.646481,-17.01009)" /><use
   id="use4116"
   inkscape:spray-origin="#path4026"
   xlink:href="#path4026"
   x="0"
   y="0"
   width="100%"
   height="100%"
   transform="translate(1.0939265,-54.199816)" /><use
   id="use4118"
   inkscape:spray-origin="#path4026"
   xlink:href="#path4026"
   x="0"
   y="0"
   width="100%"
   height="100%"
   transform="translate(23.630506,-49.563776)" /><use
   id="use4120"
   inkscape:spray-origin="#path4026"
   xlink:href="#path4026"
   x="0"
   y="0"
   width="100%"
   height="100%"
   transform="translate(9.5401732,-15.137009)" /><use
   id="use4122"
   inkscape:spray-origin="#path4026"
   xlink:href="#path4026"
   x="0"
   y="0"
   width="100%"
   height="100%"
   transform="translate(20.160386,-41.257209)" /><use
   id="use4124"
   inkscape:spray-origin="#path4026"
   xlink:href="#path4026"
   x="0"
   y="0"
   width="100%"
   height="100%"
   transform="translate(-7.5744626,-64.542013)" /><use
   id="use4126"
   inkscape:spray-origin="#path4026"
   xlink:href="#path4026"
   x="0"
   y="0"
   width="100%"
   height="100%"
   transform="translate(-29.667906,-36.598935)" /><use
   id="use4128"
   inkscape:spray-origin="#path4026"
   xlink:href="#path4026"
   x="0"
   y="0"
   width="100%"
   height="100%"
   transform="translate(8.2691938,-60.379166)" /><use
   id="use4130"
   inkscape:spray-origin="#path4026"
   xlink:href="#path4026"
   x="0"
   y="0"
   width="100%"
   height="100%"
   transform="translate(-26.290385,-47.377299)" /><use
   id="use4132"
   inkscape:spray-origin="#path4026"
   xlink:href="#path4026"
   x="0"
   y="0"
   width="100%"
   height="100%"
   transform="translate(-20.325367,-45.401978)" /><use
   id="use4134"
   inkscape:spray-origin="#path4026"
   xlink:href="#path4026"
   x="0"
   y="0"
   width="100%"
   height="100%"
   transform="translate(13.618394,-34.074413)" /><use
   id="use4136"
   inkscape:spray-origin="#path4026"
   xlink:href="#path4026"
   x="0"
   y="0"
   width="100%"
   height="100%"
   transform="translate(5.4224756,-11.177488)" /><use
   id="use4138"
   inkscape:spray-origin="#path4026"
   xlink:href="#path4026"
   x="0"
   y="0"
   width="100%"
   height="100%"
   transform="translate(-0.35635862,-47.606413)" /><path
   style="fill:#000000"
   id="path4140"
   d="m 128.89306,349.94345 c -0.48808,2.03449 -1.08122,4.04014 -1.81428,5.99956 -0.74988,1.63301 -1.18558,3.35051 -1.41017,5.12556 -0.16437,1.67515 -0.15733,3.36063 -0.1595,5.04195 -0.10035,1.25818 0.0317,2.33989 0.64103,3.43062 0.76284,0.89454 1.44262,1.88718 1.97255,2.93859 0.75972,1.44913 1.36501,2.96533 1.98044,4.47845 0.40916,1.46882 1.19146,2.78126 1.7152,4.20169 0.41913,1.38625 0.47336,2.84551 0.52273,4.28308 -0.30961,0.64577 0.62534,3.56008 0.005,1.49021 -15.67795,9.06809 -10.48179,9.16339 -9.67984,3.2904 0.15913,-1.50083 0.15403,-3.01282 0.16126,-4.52021 0.003,-1.68864 -0.002,-3.37728 -0.004,-5.06592 -0.002,-1.70318 -0.002,-3.40636 -0.003,-5.10954 0.0994,-1.50858 -0.11288,-2.97194 -0.53241,-4.41668 -0.61412,-1.51133 -0.74501,-3.13996 -1.10304,-4.71231 -0.42393,-1.39189 -0.6685,-2.82439 -0.82245,-4.26849 -0.23211,-1.21934 0.0207,-2.32577 0.32607,-3.4937 0.47055,-1.46035 0.86698,-2.92103 1.0788,-4.44255 0.17247,-1.49608 0.1811,-3.0043 0.19735,-4.50831 0.0109,-1.59525 0.008,-3.19055 0.007,-4.78582 0.002,-1.5238 -0.0164,-3.04733 -0.0137,-4.57114 -0.0843,-1.44482 0.34371,-2.83389 0.57744,-4.24427 0.22755,-1.58486 0.25443,-3.18857 0.27902,-4.78665 -0.006,-1.46502 -8e-5,-2.93006 0.002,-4.39507 -0.17771,-1.63991 -0.49691,-3.25779 -0.66557,-4.90065 -0.1528,-1.71348 -0.16997,-3.43481 -0.18335,-5.15381 0.13592,-1.57342 -0.19068,-3.08592 -0.474,-4.61868 -0.24034,-1.40101 -0.33363,-2.81881 -0.37096,-4.23776 -0.0236,-1.29761 -0.0336,-2.59539 -0.033,-3.89321 -0.007,-1.07437 -0.005,-2.14889 0.003,-3.22327 0.0212,-1.35534 0.006,-2.71067 0.01,-4.06606 -0.0214,-1.10217 0.15627,-2.25336 -0.35764,-3.2681 -0.26911,-0.17564 -0.17722,-0.19908 -0.24016,0.15248 3.61211,-1.95281 7.19035,-3.96962 10.83633,-5.85843 0.14528,-0.0753 -0.22533,0.24546 -0.29091,0.39536 -0.0908,0.20739 -0.46129,1.66633 -0.49761,1.80543 -0.5431,2.4253 -0.6682,4.91418 -0.75191,7.38992 -0.007,1.97559 -0.31565,3.94254 -0.69197,5.8781 -0.5007,1.8744 -1.15073,3.68684 -1.51812,5.59692 -0.3006,1.75823 -0.34444,3.54408 -0.3716,5.32319 -0.0366,1.93616 -0.017,3.87286 -0.008,5.80921 -0.085,1.61261 0.0355,3.17506 0.35214,4.75219 0.28684,1.2967 0.65636,2.60327 1.11283,3.85313 -0.0846,0.17041 0.80984,1.70708 1.00095,1.51826 0.09,-0.089 0.0378,-0.25198 0.0808,-0.37103 0.0568,-0.15726 0.14437,-0.30162 0.21656,-0.45242 -18.1693,12.79957 -9.93677,5.43356 -6.0146,1.77219 1.26203,-1.3004 2.76229,-2.30805 4.1652,-3.44012 1.57285,-1.09211 3.04996,-2.29454 4.35653,-3.69473 1.4685,-1.70492 2.97568,-3.37425 4.52135,-5.00936 1.32293,-1.44064 2.81465,-2.70927 4.23189,-4.05289 0,0 11.67299,-4.73491 11.67299,-4.73491 v 0 c -1.5423,1.20824 -2.91574,2.6458 -4.35667,3.97192 -1.54794,1.61042 -3.07912,3.2385 -4.50866,4.95624 -1.24881,1.47618 -2.59491,2.84021 -4.21334,3.92105 -0.68435,0.45793 -1.24433,1.03959 -1.92145,1.50241 -0.83605,0.57144 -1.72324,1.04481 -2.36451,1.86947 -5.28378,4.36833 -7.11182,8.43008 -15.43686,10.86905 -1.42579,-0.0346 -1.98987,-1.30445 -2.46066,-2.49409 -0.50328,-1.30131 -0.86575,-2.68976 -1.19843,-4.03941 -0.33444,-1.65935 -0.56635,-3.28813 -0.42896,-4.99085 6.3e-4,-1.93989 0.003,-3.87982 -0.012,-5.81966 0.018,-1.84186 0.047,-3.68922 0.30393,-5.51652 0.31135,-1.93818 0.82483,-3.80396 1.47113,-5.65137 0.50952,-1.83502 0.73177,-3.79143 0.84925,-5.68523 0.0977,-2.53536 0.22404,-5.07545 0.62458,-7.58437 0.11464,-0.60902 0.30746,-1.20291 0.39886,-1.81584 0.0402,-0.26982 -0.19574,-0.67066 0.034,-0.81771 5.81439,-3.72096 8.86378,-9.73199 12.03976,-5.57589 0.62815,1.21565 0.69604,2.45713 0.61619,3.80874 0.003,1.3525 -0.0114,2.70493 0.009,4.05738 0.008,1.07512 0.006,2.15041 -0.005,3.22547 -0.003,1.29153 -0.0209,2.58322 -0.002,3.87469 0.0293,1.35954 0.0688,2.72317 0.27781,4.06939 0.27484,1.60089 0.69198,3.18145 0.54872,4.82196 0.007,1.68536 0.0122,3.37256 0.13258,5.0545 0.14597,1.68144 0.42292,3.3394 0.73379,4.9976 0.006,1.47202 0.022,2.94432 -0.008,4.41617 -0.0129,1.64216 -0.0244,3.28758 -0.18634,4.92332 -0.16625,1.3783 -0.59706,2.70823 -0.65501,4.08324 0.003,1.52678 -0.0133,3.05333 -0.008,4.58009 0.004,1.5946 0.0116,3.18918 0.0171,4.78377 -0.001,1.5494 -0.0319,3.09901 -0.1534,4.64435 -0.15272,1.54186 -0.36594,3.09412 -0.98,4.53084 -0.19486,1.086 -0.72379,2.0284 -0.51167,3.15391 0.10491,1.3935 0.28976,2.77898 0.71807,4.11526 0.38962,1.53588 0.42667,3.15704 1.06034,4.63632 0.52103,1.53879 0.79242,3.13802 0.69571,4.76659 9e-5,1.70275 1.6e-4,3.40549 0.002,5.10824 0.002,1.68865 0.006,3.3773 0.0116,5.06595 0.003,1.54344 0.0189,3.0888 -0.0721,4.63027 -0.58719,6.61575 -2.18272,5.3172 -11.62682,10.14934 -1.26021,-1.04054 -1.28185,-1.97838 -1.23189,-3.57126 -0.0192,-1.31412 -0.0221,-2.64647 -0.34567,-3.92881 -0.47004,-1.41633 -1.23655,-2.72119 -1.63224,-4.16842 -0.62406,-1.47561 -1.19131,-2.97515 -1.98396,-4.3738 -0.51726,-1.04117 -1.246,-1.96336 -1.95662,-2.87825 -0.72626,-1.2852 -1.04514,-2.53293 -0.89361,-4.02791 -0.003,-1.7216 -0.0152,-3.44549 0.10095,-5.16418 0.16996,-1.87582 0.49289,-3.72965 1.28851,-5.45502 0.81111,-1.83888 1.36084,-3.76799 1.85836,-5.7128 0,0 11.34507,-5.54654 11.34507,-5.54654 z"
   inkscape:connector-curvature="0" /><path
   style="fill:#000000"
   id="path4142"
   d="m 179.9789,287.76337 c 0.0361,2.41198 -0.16817,4.7986 -0.4228,7.19398 -0.40173,2.36842 -0.85428,4.72309 -1.10733,7.1137 -0.0949,2.00309 -0.26718,3.98741 -0.5592,5.9714 -0.24808,1.59974 -0.36981,3.21462 -0.43949,4.83077 -0.0516,1.58962 -0.0482,3.18036 -0.0491,4.77062 0.0502,1.7701 -0.36137,3.50566 -0.59245,5.25174 -0.22401,2.14832 -0.25913,4.3104 -0.28036,6.46843 -0.029,2.25573 -0.004,4.51169 0.01,6.76744 0.0699,1.94112 0.66403,3.77364 1.55773,5.48267 0.73807,1.42004 1.51552,2.80959 2.215,4.24946 0.59167,1.43179 1.08447,2.90843 1.56514,4.38293 0.42242,1.46941 0.56753,2.99879 0.61428,4.52124 -0.0213,1.89676 -0.66392,3.69661 -1.33526,5.44598 -0.70505,1.76221 -1.63286,3.42081 -2.26344,5.21219 -0.58335,1.44181 -1.01563,2.93049 -1.49163,4.40909 -0.52385,1.55169 -0.68867,3.17809 -0.7878,4.80244 -0.0996,1.92313 -0.0802,3.85002 -0.0742,5.77503 0.008,1.75325 0.0124,3.5065 0.015,5.25976 0.002,1.7008 0.002,3.40161 0.002,5.10241 0.0332,1.81245 -0.0798,3.6274 0.0585,5.43576 0.31577,1.82072 0.44672,3.66908 0.74162,5.49128 0.39965,1.71148 0.65036,3.4453 0.7901,5.1956 0.0966,1.68283 0.39511,3.36218 0.76414,5.00611 0.45078,1.77224 0.80583,3.5635 1.33211,5.31605 0.67907,1.82313 1.235,3.69643 1.91597,5.51751 0.68606,1.40828 0.81663,2.96464 1.16116,4.46478 0.39384,1.07423 0.54074,2.21018 0.82139,3.30884 -8.61342,4.3377 -11.41886,9.46485 -13.30586,2.09836 -0.35052,-1.70014 -0.37282,-3.44227 -0.39615,-5.17105 -0.0108,-1.71098 -3.8e-4,-3.42201 0.004,-5.13299 0.005,-1.70132 0.006,-3.40265 0.006,-5.10397 4.6e-4,-1.70086 3.6e-4,-3.40172 3.3e-4,-5.10258 0.0413,-1.69678 -0.36351,-3.36003 -0.58066,-5.03526 -0.1114,-1.84551 -0.46599,-3.65936 -0.72701,-5.48676 -0.27945,-1.93871 -0.33411,-3.89578 -0.36569,-5.85074 -0.0105,-2.04704 -0.0804,-4.09685 0.0587,-6.14027 0.21521,-2.13837 0.67572,-4.24095 1.21907,-6.31706 0.50364,-1.81348 1.0844,-3.60303 1.67007,-5.39127 0.73834,-1.9066 1.40083,-3.8333 2.00184,-5.78781 0.81634,-2.67427 1.57385,-5.36048 2.23842,-8.07607 0.69371,-2.58238 0.93959,-5.24675 1.42315,-7.86933 0.52529,-2.8355 0.63236,-5.72301 0.72145,-8.5983 0.14474,-2.46389 0.0201,-4.89681 -0.32256,-7.33557 -0.17763,-1.84686 -0.74592,-3.60783 -1.47621,-5.30251 -0.77585,-1.59986 -1.11276,-3.36168 -1.85116,-4.97403 -0.0776,-0.16491 -0.51297,-1.10043 -0.62357,-1.29682 -0.0619,-0.10988 -0.11256,-0.23893 -0.21662,-0.31015 -0.0375,-0.0257 -0.0933,0.14618 -0.0527,0.12581 10.95534,-5.49044 13.04635,-9.01563 10.5943,-5.08977 -0.53515,1.55294 -0.9219,3.15162 -1.45835,4.70966 -0.83815,2.11265 -1.28594,4.32878 -1.74995,6.54241 -0.42793,1.97959 -0.86224,3.98065 -0.83407,6.01414 0.1072,1.8787 0.47029,3.74972 1.09695,5.52415 0.64367,1.47288 0.93514,3.05434 1.35647,4.59654 0.39419,1.49385 0.99631,2.90217 1.31374,4.42018 0.30138,1.40551 0.31867,2.84638 0.33641,4.27712 0.0973,1.49823 -0.0511,2.93462 -0.62828,4.32417 -0.43467,1.10643 -0.98834,2.16335 -1.71361,3.10573 -0.67341,1.34824 -1.13844,2.81814 -1.48383,4.28512 -0.41742,2.24567 -0.83622,4.49056 -1.29154,6.72899 -0.57934,2.67216 -1.24666,5.32361 -1.85254,7.98946 -0.55483,2.48592 -0.64295,5.03701 -0.71812,7.57275 -0.0384,2.18919 -0.0127,4.3788 0.002,6.56809 -0.0731,2.10737 0.18343,4.19602 0.54305,6.26763 0.52186,2.48977 0.83295,5.00728 1.02247,7.54158 0.14969,2.0774 0.14043,4.16046 0.14833,6.24176 -0.0228,1.87362 0.0756,3.75081 -0.0628,5.6205 -0.27618,1.69395 -0.53209,3.38633 -0.6662,5.09806 -0.10911,1.68429 -0.11388,3.37291 -0.12005,5.06001 0.0367,1.35272 0.54903,2.57208 1.00032,3.81979 0.40189,1.50848 0.99588,2.95155 1.58006,4.39578 0.56572,1.44415 0.66419,2.99959 0.98719,4.50417 0.40469,1.33394 1.08227,2.54714 1.6246,3.82234 0.50526,1.34622 0.67403,2.77032 0.75019,4.19569 0.0952,1.63622 -0.32914,3.23846 -0.55456,4.84895 -0.0734,1.68949 -0.46168,3.32731 -0.74825,4.98632 -0.2988,1.68876 -0.27285,3.40763 -0.42532,5.10956 -0.30444,1.46559 -0.56099,2.93148 -0.69076,4.42337 -0.11399,1.65204 -0.11591,3.30903 -0.1218,4.96417 0.11913,1.72089 -0.19004,3.40334 -0.45346,5.09351 -0.84228,5.61354 4.29341,0.67537 -11.74965,6.56412 -0.0594,0.0218 -0.36968,-0.73372 -0.62695,-1.33653 -0.56806,-1.90678 -1.26181,-3.77604 -1.79045,-5.6937 -0.54305,-2.14782 -1.06482,-4.28549 -1.37467,-6.4813 -0.28305,-2.14767 -0.27419,-4.317 -0.2908,-6.4787 0.1096,-2.21794 -0.41955,-4.39103 -0.53633,-6.59502 -0.0406,-1.76766 0.67685,-3.37193 1.40214,-4.94063 0.80125,-1.55058 1.33911,-3.2213 1.85278,-4.88468 0.65311,-1.84663 0.98127,-3.77919 1.52151,-5.65646 0.48051,-1.75938 0.96639,-3.51466 1.42709,-5.27928 0.59199,-1.63017 0.85603,-3.33622 1.00895,-5.0552 0.24396,-1.70892 -0.0423,-3.32059 -0.54351,-4.94693 -0.47338,-1.3285 -1.37871,-2.36074 -2.24419,-3.43604 -3.27927,-2.83251 -12.87783,5.11766 10.56722,-6.29162 0.1799,-0.0875 0.0594,0.39614 0.10489,0.59099 0.15376,0.65933 0.35216,1.30746 0.52491,1.96207 0.7721,2.23322 1.50842,4.48249 2.10527,6.76943 0.57109,2.54399 1.21591,5.0704 1.77512,7.61687 0.48837,2.13765 0.61055,4.323 0.68698,6.50612 0.0615,1.94873 0.0426,3.89831 0.0346,5.84755 -0.003,1.8906 9.3e-4,3.7812 0.003,5.6718 -0.001,1.54584 0.0173,3.09142 0.0144,4.63727 0.0627,1.52229 -0.0169,3.00953 -0.32606,4.49988 -0.33948,1.49665 -0.43427,3.02889 -0.49641,4.55733 -0.0931,7.01097 -0.15765,3.4331 -11.62473,9.02047 -1.09794,-3.02423 -1.03105,-6.35382 -1.12111,-9.53318 -0.10533,-4.42615 -0.091,-8.85395 -0.0792,-13.28099 -0.0111,-3.49759 0.1091,-7.0172 0.58097,-10.4864 0.28742,-2.02521 0.89552,-3.97707 1.44898,-5.93977 0.7017,-2.05152 0.99338,-4.19198 1.15691,-6.34357 0.11574,-1.96104 0.11036,-3.92633 0.10751,-5.88994 -0.065,-2.46443 -0.6945,-4.84688 -1.34394,-7.2084 -0.72054,-2.49506 -0.87723,-5.08676 -1.18943,-7.64929 -0.43879,-2.43365 -0.63924,-4.89403 -0.74878,-7.36152 -0.0519,-3.06357 -0.44168,-6.10914 -0.88466,-9.13685 -0.5121,-2.59068 -1.08343,-5.18968 -2.21325,-7.58785 -0.31114,0.0465 -0.23078,-0.85481 -0.58708,-0.90674 -0.0787,-0.0115 -0.10053,0.27252 -0.0296,0.23666 3.65696,-1.8486 7.2187,-3.88204 10.88018,-5.72165 0.16756,-0.0842 -0.27079,0.26821 -0.35719,0.43465 -0.15129,0.2914 -0.23136,0.61456 -0.34704,0.92184 -1.32416,3.37387 -1.7225,6.972 -2.02872,10.55299 -0.276,4.20722 -0.2763,8.42607 -0.30404,12.64043 -0.0368,3.85953 0.38517,7.70254 0.65033,11.54866 0.25161,2.93621 0.84215,5.83366 1.53285,8.69459 0.57638,2.23928 1.05708,4.5008 1.56287,6.75733 0.4126,1.82952 0.54906,3.6995 0.6207,5.56826 0.007,0.28786 0.0127,0.57573 0.0198,0.86359 0.0107,0.43836 0.015,0.81661 0.0465,1.24651 0.0112,0.15303 0.1789,0.38661 0.0432,0.45827 -11.62922,6.14306 -10.38121,9.61803 -11.68632,4.5268 -1.15528,-4.24651 -1.78901,-8.59924 -2.31998,-12.95958 -0.5347,-3.76092 -0.91054,-7.54327 -1.53371,-11.29096 -0.28632,-2.20762 -1.02354,-4.31038 -1.78657,-6.38938 -0.69021,-2.01451 -1.68634,-3.90414 -2.59049,-5.82844 -0.68773,-1.65651 -1.3052,-3.32664 -2.11191,-4.9298 -0.72068,-1.48007 -1.02574,-3.09385 -1.05127,-4.72889 0.90578,-5.56447 8.67499,-9.16253 13.93981,-7.65763 1.6875,0.65662 3.22143,1.59717 4.66195,2.6858 1.54478,1.18814 2.70367,2.76169 3.49984,4.52544 0.89048,2.01434 1.38598,4.1857 1.88752,6.32398 0.44831,1.93862 0.60354,3.92179 0.68272,5.90431 0.0489,1.71943 0.0386,3.43982 0.0348,5.15974 0.27527,5.99088 -7.01674,9.92666 -12.88735,9.77818 -2.97874,-0.67937 -5.69978,-2.31097 -8.28364,-3.89931 -2.40301,-1.52189 -4.52428,-3.41854 -6.58222,-5.36801 -1.58283,-1.68095 -3.40959,-3.08962 -5.15484,-4.59199 -1.4401,-0.93341 -2.57772,-2.28191 -4.07156,-3.12627 -1.19946,-0.50758 -2.36483,-1.07371 -3.54077,-1.63575 -1.50579,-0.82516 -2.98093,-1.70252 -4.38588,-2.69305 -2.55018,-1.5398 -4.85688,-3.43154 -7.14143,-5.33363 -1.15872,-1.11566 -2.50909,-1.99356 -3.77153,-2.97825 -0.76294,-0.59509 -1.384,-1.21294 -2.25732,-1.63718 -0.12494,-0.0573 -0.24428,-0.215 -0.37481,-0.17194 -0.0953,0.0314 -0.10375,0.34847 -0.0155,0.30069 3.63579,-1.96862 7.10818,-4.23518 10.78266,-6.13061 0.15903,-0.082 0.0363,0.35652 0.0704,0.53217 0.0991,0.51022 0.15581,0.58777 0.34669,1.06853 0.69887,1.4442 0.99695,3.0052 1.18106,4.585 0.20904,1.63115 0.15598,3.2335 -0.15718,4.84174 -0.47507,1.4672 -0.95263,2.92944 -1.38254,4.41486 -0.39961,1.77404 -0.89652,3.52618 -1.27783,5.30443 -0.27442,1.71738 -0.74131,3.39131 -1.01113,5.10958 -0.17035,1.60392 -0.35329,3.23492 -0.20421,4.84658 0.31358,1.4808 0.53982,2.97033 0.66411,4.47856 0.12617,1.80956 0.1029,3.62439 0.10783,5.43702 -0.0897,1.83846 0.0514,3.63964 0.34518,5.451 0.50145,1.6756 0.82058,3.39177 1.21104,5.09329 0.41914,1.53364 0.74759,3.08204 0.90342,4.66421 0.12795,1.3975 0.16398,2.80536 0.0535,4.20425 -0.21853,1.69583 -0.70294,3.33709 -1.21369,4.96361 -0.43371,1.34176 -1.11501,2.58068 -1.60504,3.89741 -0.23245,1.06958 -0.73398,2.03858 -1.05734,3.07891 -0.27991,1.14812 -0.28787,2.34034 -0.31505,3.51556 -0.0303,1.44165 -0.006,2.88338 -0.005,4.32512 0.0231,1.11432 0.0104,2.22887 0.0207,3.34324 -0.0639,1.1773 -0.011,2.3104 0.30485,3.44759 0.22378,0.70924 0.42144,1.75648 1.18293,2.05707 0.48767,0.56862 1.16687,0.59574 1.81298,0.827 0.40552,0.14515 0.78182,0.3626 1.18157,0.52293 1.36282,0.45116 2.80972,0.49557 4.23149,0.547 1.44812,0.0294 2.89669,0.0227 4.34503,0.0219 1.44676,-0.009 2.89348,-0.0117 4.34029,-0.009 1.64262,0.16993 3.19746,-0.19084 4.80051,-0.46422 1.56197,-0.25806 3.01622,-0.84691 4.59388,-1.06621 1.28119,-0.64879 2.69417,-0.81554 4.10427,-0.9304 1.62172,-0.10217 3.24742,-0.0865 4.87141,-0.10161 1.2819,-0.0103 2.56375,-0.002 3.84564,0.005 0.99483,0.008 2.03672,0.19713 2.98972,0.50163 0.14205,0.0454 0.26191,0.17854 0.41103,0.17666 0.0609,-7.6e-4 -0.0145,-0.12103 -0.0218,-0.18155 -12.70044,9.13396 -6.96883,7.5133 -15.50508,6.39507 -2.37486,-0.51922 -4.77428,-0.88991 -7.19674,-1.08376 -1.83332,-0.36554 -3.65396,-0.70153 -5.458,-1.18467 -1.61273,-0.22378 -3.14472,-0.68966 -4.71779,-1.08228 -1.36719,-0.10096 -2.60296,-0.68996 -3.92245,-1.00248 -1.14532,-0.21723 -2.31247,-0.21695 -3.47337,-0.23259 -0.76252,-0.10665 -1.29147,0.1327 -1.92009,0.51856 -0.18074,0.11095 -0.72115,0.44639 -0.5369,0.34139 10.3452,-5.89578 13.42737,-8.41704 9.87294,-5.55474 -3.61598,2.9306 -8.99209,5.20968 -12.26746,7.07653 -0.14593,0.0832 -0.54362,0.39274 -0.39781,0.30933 6.36405,-3.64067 13.95704,-8.13708 10.1471,-5.88143 -0.47101,0.0644 1.07725,1.18135 1.24834,1.31195 0.97004,0.38206 1.86744,0.84068 2.90546,1.04969 1.33565,0.77394 2.89881,0.73174 4.33904,1.15696 1.47377,0.49348 3.01547,0.64207 4.55694,0.7295 0.75933,0.0316 1.51924,0.0525 2.27929,0.0453 0.12717,-10e-4 0.48909,-0.0771 0.38139,-0.009 -11.05025,6.93904 -7.40179,8.98556 -11.68147,6.25218 -1.851,-1.14688 -3.95056,-1.78514 -5.92515,-2.67913 -1.78049,-0.71748 -3.64419,-1.16906 -5.44579,-1.8347 -1.88775,-0.63009 -3.86468,-0.89961 -5.68853,-1.71488 -1.37675,-0.65871 -2.71697,-1.50012 -3.92669,-2.43728 -1.28192,-1.20153 -1.96511,-2.71459 -2.39027,-4.38696 -0.32809,-1.72324 -0.42283,-3.48972 -0.30978,-5.23821 0.27509,-1.80988 0.53481,-3.62113 0.89917,-5.41556 0.5244,-2.32873 0.6509,-4.71289 0.7304,-7.09029 0.0949,-2.68942 0.0709,-5.38037 0.0719,-8.07079 -0.0746,-2.24361 0.21583,-4.47517 0.74863,-6.64986 0.31404,-1.39474 0.75864,-2.77934 1.52577,-3.99362 3.00578,-4.30629 8.30492,-8.688 13.62627,-8.2672 1.74228,0.44637 3.30732,1.32885 4.92519,2.08213 1.60987,0.96451 3.20318,1.92659 4.70711,3.0512 1.85161,1.32101 3.58946,2.71923 5.18162,4.34558 1.47557,1.64281 3.31525,2.88549 5.05307,4.2266 1.80391,1.544 3.66439,3.00991 5.51942,4.49111 1.64417,1.03271 3.18067,2.1987 4.7625,3.31708 1.66004,1.20964 3.44074,2.26353 5.22648,3.27897 1.65602,1.069 3.38282,2.05298 4.89272,3.32672 1.20246,0.92458 1.50389,2.36328 1.90538,3.74181 0.45938,1.63508 0.58467,3.33081 0.66596,5.01903 0.19578,1.59563 0.44048,3.18684 0.91334,4.72488 0.51989,1.45918 0.89959,2.96881 1.40905,4.42963 2.26743,6.17146 0.73295,2.83556 -10.22111,8.02532 0.21199,-2.73358 0.46432,-5.46727 0.69566,-8.20149 0.20345,-2.3061 0.26074,-4.61969 0.30602,-6.93297 0.0239,-2.62967 0.0517,-5.25929 0.0449,-7.88909 -0.0146,-2.24341 -0.0375,-4.48674 -0.0497,-6.73016 -0.0147,-1.85338 -0.009,-3.70657 0.0129,-5.55983 0.20778,-3.36068 0.73255,-6.68849 1.13575,-10.02838 0.6315,-4.0065 1.06183,-8.03355 1.30908,-12.08071 0.34896,-4.61675 0.87402,-9.21601 1.32572,-13.8231 0.40691,-4.8135 0.5041,-9.64379 0.54088,-14.47173 -0.009,-2.86915 -0.0185,-5.73835 -0.0352,-8.60747 0.11216,-3.14527 -0.0188,-6.27398 -0.40265,-9.39615 -0.4365,-3.39803 -1.3835,-6.69296 -2.30105,-9.9833 -1.24458,-3.80404 -2.25986,-7.6737 -3.34375,-11.52504 -1.11404,-4.11756 -2.21171,-8.23596 -3.40883,-12.32973 -0.76338,-2.81623 -1.43872,-5.65389 -2.22186,-8.46512 -0.72613,-2.61351 -0.81764,-5.32897 -1.10102,-8.00894 -0.25289,-2.41899 -0.63022,-4.80804 -1.10216,-7.19242 -0.43627,-2.06595 -1.0919,-4.0799 -1.79742,-6.06778 -0.76744,-2.18757 -1.84971,-4.22693 -2.93809,-6.26499 -1.09064,-2.27582 -2.67522,-4.26068 -4.10974,-6.32204 -1.08349,-1.28054 -2.03314,-2.69641 -3.24308,-3.86345 -1.17383,-0.99104 -2.39879,-1.95551 -3.73361,-2.72696 -1.46787,-0.77159 -2.97861,-1.28248 -4.61445,-1.53861 -1.46126,-0.0405 -3.09056,-0.48704 -4.50214,0.002 -3.52729,3.08825 0.086,-0.14071 9.55767,-5.27149 0.28357,-0.15362 -0.49542,0.41731 -0.70587,0.66169 -0.83571,0.97044 -1.28959,2.17659 -1.76623,3.34259 -1.08906,2.99979 -1.93968,6.08562 -2.51985,9.22309 -0.3718,3.20778 -0.7854,6.41409 -1.08543,9.6303 -0.44628,3.44392 -0.82361,6.89393 -1.01899,10.36153 -0.19239,3.64999 -0.20059,7.3064 -0.22889,10.9604 0.0974,4.45198 -0.10429,8.89147 -0.37309,13.33322 -0.27844,4.04208 -0.35565,8.0932 -0.42413,12.14297 -0.33238,5.82364 -0.85839,11.6339 -1.24234,17.45419 -0.50975,5.83409 -0.5166,11.66223 0.46982,17.43914 0.51418,3.07867 1.71275,5.96955 2.76709,8.88951 0.9546,2.57403 2.03905,5.09829 3.066,7.64474 0.84019,2.09214 1.65662,4.19155 2.44987,6.30211 0.63504,1.50267 1.24958,2.98346 1.59181,4.58346 0.29365,1.66309 0.31177,3.35657 0.33138,5.04023 0.009,1.70269 5.5e-4,3.40543 -0.003,5.10813 -0.096,1.50466 -0.48217,2.9667 -0.66531,4.46269 -0.0472,1.68265 -0.38683,3.32444 -0.66347,4.97821 -0.40167,1.64879 -0.69897,3.33099 -1.2093,4.951 -0.45941,1.47918 -0.77001,2.99933 -1.14242,4.50284 -0.31231,1.67471 -0.54692,3.35573 -0.89019,5.02592 -0.29237,1.7114 -0.79966,3.37026 -1.09128,5.08199 -0.12883,1.52451 -0.60235,2.98166 -0.86692,4.48233 -0.22564,1.45723 -0.24116,2.9338 -0.26577,4.40469 -0.0773,1.23494 -0.45332,2.42351 -0.65542,3.64166 -0.0473,1.03169 0.24851,2.04766 0.82007,2.9019 0.97387,1.42881 1.72685,2.98841 2.56004,4.50217 0.93582,1.43358 1.50894,3.36332 2.91557,4.42377 0.22569,0.0878 0.78578,0.33759 1.03585,0.29713 0.42935,-0.0695 1.53106,-0.75935 1.90973,-0.97967 -3.36099,1.90878 -6.72197,3.81756 -10.08296,5.72635 1.30022,-0.86788 2.49146,-1.90382 3.58202,-3.02221 1.16977,-1.00453 1.91511,-2.25508 2.48462,-3.66323 0.60446,-1.38268 1.1754,-2.78604 1.58299,-4.2402 0.58196,-1.80293 0.96251,-3.65526 1.38948,-5.49831 0.4427,-2.59145 0.73988,-5.20357 1.1314,-7.8048 0.22927,-2.32822 0.77454,-4.5979 1.52196,-6.80945 0.77261,-2.0311 1.62957,-4.03002 2.45384,-6.04098 1.102,-2.67309 1.82585,-5.45845 2.42552,-8.27961 0.61227,-3.90794 1.35078,-7.79492 1.951,-11.70449 0.63932,-4.29363 1.40936,-8.56463 2.17447,-12.83701 0.54504,-2.72845 0.27666,-1.38031 0.80528,-4.0444 0,0 11.10012,-5.38149 11.10012,-5.38149 v 0 c -0.54263,2.67177 -0.26182,1.32684 -0.84311,4.03465 -0.76572,4.25656 -1.55603,8.50852 -2.16981,12.79071 -0.54783,3.92309 -1.35928,7.80357 -1.87871,11.7315 -0.50144,2.87996 -1.16067,5.70914 -2.20535,8.4443 -0.80837,2.00546 -1.61821,4.00583 -2.45016,5.99847 -0.86141,2.10205 -1.43705,4.33121 -1.66699,6.59198 -0.39629,2.61887 -0.82435,5.22467 -1.0721,7.86384 -0.37162,1.8487 -0.69249,3.71632 -1.31802,5.50049 -0.32472,1.54113 -0.88408,2.99289 -1.46727,4.45046 -0.727,1.40596 -1.04821,2.99413 -2.29849,4.10306 -1.18773,1.05456 -2.21319,2.30237 -3.52075,3.22401 -3.8297,2.22638 -7.63059,4.50308 -11.48911,6.67913 -1.27102,0.71681 -2.72509,0.3651 -3.81131,-0.47622 -1.34796,-1.35683 -2.06654,-3.20292 -3.03048,-4.83203 -0.85426,-1.47288 -1.66147,-2.97477 -2.62903,-4.37539 -0.71226,-1.12724 -1.10795,-2.35704 -1.2382,-3.68718 0.11843,-1.19658 0.37294,-2.37039 0.73928,-3.5166 0.0108,-1.52324 0.0537,-3.04873 0.1987,-4.56571 0.19504,-1.52994 0.67634,-2.97716 0.88607,-4.49349 0.23602,-1.74399 0.71838,-3.41687 1.06751,-5.13349 0.32417,-1.68601 0.69282,-3.34688 0.86637,-5.05827 0.33364,-1.54257 0.7453,-3.05984 1.07651,-4.60154 0.54922,-1.56771 0.87087,-3.16999 1.31965,-4.77241 0.23924,-1.64069 0.68612,-3.24563 0.67691,-4.91279 0.1278,-1.47291 0.35815,-2.9247 0.737,-4.35569 0.004,-1.69832 0.0111,-3.39664 0.009,-5.09497 -0.01,-1.6101 -0.009,-3.22786 -0.23333,-4.82565 -0.28252,-1.55497 -0.89257,-2.96447 -1.46016,-4.43057 -0.76173,-2.1114 -1.552,-4.20937 -2.36908,-6.2999 -1.04731,-2.55938 -2.07933,-5.12597 -3.07486,-7.70507 -1.0437,-3.01036 -2.31934,-5.97007 -2.74528,-9.15317 -0.91641,-5.90427 -0.75692,-11.86389 -0.34805,-17.81131 0.36308,-5.75125 0.73683,-11.49942 0.98768,-17.25652 0.0438,-4.07757 0.18558,-8.15333 0.44451,-12.22325 0.30333,-4.4154 0.52142,-8.82504 0.38614,-13.25325 -0.0156,-3.65874 -0.0413,-7.31948 0.10116,-10.97627 0.22024,-3.47974 0.57306,-6.94408 1.02543,-10.40169 0.25982,-3.24816 0.72448,-6.47115 1.01954,-9.71555 0.51808,-3.20297 1.39582,-6.32976 2.39577,-9.41388 2.17636,-6.58962 5.72855,-9.70653 14.30766,-11.57392 1.57855,0.002 3.16407,0.0939 4.71846,0.38093 1.71552,0.39507 3.34343,1.02802 4.87351,1.90654 1.37586,0.88694 2.69807,1.87163 3.90256,2.98085 1.20557,1.2723 2.23577,2.69662 3.28571,4.09695 1.43694,2.11788 3.02609,4.15377 4.17291,6.45213 1.10033,2.09723 2.24905,4.16593 3.06552,6.3978 0.74123,2.04411 1.35852,4.13722 1.87816,6.24813 0.44003,2.42458 0.85314,4.84202 1.09398,7.29701 0.33472,2.61344 0.31217,5.2804 1.01929,7.84052 0.75552,2.82562 1.46048,5.65988 2.10288,8.51361 1.14521,4.11477 2.24693,8.23874 3.3288,12.37097 1.12345,3.83419 2.2261,7.67387 3.45589,11.47504 0.93169,3.34513 1.95477,6.67752 2.36876,10.1399 0.46404,3.14921 0.66982,6.30312 0.58576,9.48784 -0.009,2.89889 -0.01,5.79802 -0.0936,8.69606 -0.11122,4.87445 -0.27713,9.74918 -0.6327,14.61273 -0.3249,4.58273 -0.88089,9.14658 -1.21802,13.7293 -0.20155,4.06921 -0.62349,8.11708 -1.27351,12.14053 -0.33792,3.27412 -0.81444,6.53217 -1.02735,9.81875 0.0219,1.84858 0.0275,3.69707 0.0138,5.54576 -0.0108,2.25879 -0.0308,4.51752 -0.0418,6.7763 -0.003,2.62559 0.0385,5.25106 0.0184,7.87662 -0.017,2.34958 -0.0802,4.70122 -0.31013,7.04091 -0.25615,2.72505 -0.64968,5.45177 -0.51135,8.19422 -13.9518,7.92737 -9.82866,9.95934 -12.14804,3.64237 -0.52811,-1.47167 -0.87785,-3.0109 -1.43542,-4.47478 -0.50742,-1.64267 -0.76146,-3.32613 -1.04632,-5.02098 -0.0559,-1.59016 -0.13095,-3.19269 -0.54199,-4.73851 -0.33538,-1.14047 -0.53001,-2.32913 -1.51577,-3.09903 -1.48606,-1.19272 -3.10818,-2.20167 -4.73593,-3.18771 -1.8007,-1.08085 -3.64395,-2.1065 -5.32984,-3.3634 -1.55759,-1.16939 -3.16742,-2.25122 -4.74754,-3.38964 -1.85053,-1.47021 -3.65581,-2.9902 -5.48917,-4.48092 -1.79854,-1.36257 -3.66742,-2.6542 -5.17302,-4.35596 -1.55592,-1.55816 -3.25735,-2.90706 -5.05834,-4.17467 -1.48724,-1.02588 -3.05226,-1.93554 -4.61689,-2.8379 -1.41894,-0.68051 -2.93473,-1.58004 -4.55548,-1.45355 -4.18195,1.84547 -0.12134,0.0773 9.72723,-5.74453 0.16296,-0.0963 -0.35842,0.12836 -0.52215,0.22337 -0.6151,0.35692 -0.28724,0.27499 -0.76255,0.79366 -0.11621,0.1268 -0.26394,0.22061 -0.3959,0.33092 -0.70591,1.16737 -1.55199,2.27866 -1.76051,3.6867 -0.57424,2.08473 -1.02351,4.21834 -0.955,6.39615 0.003,2.70134 -0.007,5.4031 -0.0429,8.10416 -0.0837,2.42292 -0.11817,4.86771 -0.59056,7.25345 -0.35768,1.7614 -0.60397,3.53211 -0.91925,5.30173 -0.27029,1.59841 -0.0804,3.24951 0.11935,4.84946 0.30362,1.40754 0.81914,2.66743 1.95799,3.61442 1.18082,0.82358 2.39559,1.64339 3.73174,2.19117 1.84213,0.67195 3.78315,1.00206 5.62568,1.67691 1.84461,0.60122 3.72477,1.11654 5.49366,1.92377 2.05102,0.87743 4.16197,1.64731 6.07078,2.81922 5.74049,3.71765 -7.47033,8.88784 -11.80358,7.8341 -1.58902,-0.15264 -3.15213,-0.43148 -4.68035,-0.90363 -1.484,-0.30024 -2.96695,-0.5607 -4.37294,-1.1473 -1.12391,-0.35239 -2.24636,-0.82052 -3.22426,-1.47947 -0.94041,-0.79559 -1.87322,-1.54829 -2.08947,-2.83703 0.037,-0.18319 -0.046,-0.44812 0.11099,-0.54959 2.28047,-1.47427 26.73776,-15.7243 1.24642,-0.93356 -0.32243,0.18708 1.39109,-0.71228 0.99902,-0.50259 4.11035,-3.44067 8.97296,-7.51788 14.52513,-7.41684 1.23815,0.0388 2.4779,0.11275 3.67206,0.47363 1.28335,0.40173 2.56253,0.77485 3.88933,1.01065 1.55021,0.43644 3.12223,0.72656 4.68875,1.09691 1.74962,0.44815 3.53643,0.75511 5.31886,1.03849 2.41312,0.27789 4.79153,0.75004 7.18515,1.15537 1.198,0.17724 2.37839,0.39944 3.5686,0.61811 5.208,0.95682 4.57615,-1.30202 -8.6065,7.64224 -0.66857,-0.78508 -2.34383,-0.42395 -3.24892,-0.53804 -1.27719,0.002 -2.55431,8.5e-4 -3.83146,-0.005 -1.59638,3.9e-4 -3.19803,0.0204 -4.78457,0.2145 -1.38997,0.21814 -2.69797,0.67615 -4.06203,0.99474 -1.52913,0.34377 -3.01457,0.87496 -4.58224,1.04089 -1.64163,0.27791 -3.27853,0.3728 -4.94451,0.30869 -1.44501,0.005 -2.88999,0.008 -4.33499,0.006 -1.45965,0.003 -2.92108,0.0151 -4.37839,-0.0818 -1.53197,-0.1055 -3.07339,-0.2635 -4.50189,-0.87106 -1.10012,-0.45329 -2.26861,-0.76037 -3.18174,-1.57004 -0.83034,-0.73398 -1.35545,-1.74519 -1.61195,-2.82308 -0.32578,-1.23514 -0.57101,-2.45356 -0.46589,-3.73955 0.009,-1.11932 -0.005,-2.23878 0.013,-3.35809 -0.005,-1.44605 0.007,-2.89204 -0.007,-4.33808 -1.4e-4,-1.25316 0.0126,-2.50865 0.16243,-3.75466 0.20196,-1.12903 0.69485,-2.10753 1.05596,-3.16691 0.35577,-1.41707 1.09661,-2.6207 1.58611,-3.98786 0.69305,-1.46581 1.00445,-3.11216 1.33482,-4.69188 0.26233,-1.29824 0.0844,-2.63587 0.0654,-3.95348 -0.1145,-1.52615 -0.36199,-3.03427 -0.78515,-4.50786 -0.44685,-1.71943 -0.6574,-3.49875 -1.25592,-5.18352 -0.30329,-1.87613 -0.5626,-3.72775 -0.41799,-5.63709 -0.003,-1.77911 -0.0157,-3.55926 -0.1024,-5.33655 -0.10177,-1.48967 -0.29074,-2.96624 -0.64286,-4.41986 -0.25758,-1.70365 -0.05,-3.44244 0.073,-5.15317 0.21966,-1.75271 0.67708,-3.4429 0.98628,-5.17471 0.33082,-1.82168 0.90551,-3.57592 1.24125,-5.39584 0.39555,-1.45894 0.64693,-2.97663 1.38669,-4.31055 0.30922,-1.51068 0.61327,-2.95362 0.34573,-4.51084 -0.13623,-1.46145 -0.35628,-2.91379 -1.03227,-4.23809 -0.0675,-0.15015 -0.82674,-1.84715 -0.65121,-1.97783 12.33803,-9.18577 7.22686,-9.55434 11.43859,-6.642 2.07037,1.49918 3.90251,3.32531 5.93174,4.88066 2.30799,1.84649 4.64137,3.6583 7.19966,5.15201 1.42684,0.88987 2.86087,1.76622 4.37461,2.50307 1.19668,0.59845 2.44453,1.09057 3.60442,1.76427 1.43889,1.01047 2.67573,2.28031 4.09548,3.31989 1.76631,1.50456 3.56209,2.97459 5.16157,4.66223 1.98955,1.8876 4.0381,3.72881 6.37279,5.18736 2.37222,1.42585 5.0599,3.1952 7.92008,3.05846 4.27974,-1.89467 -0.0516,-0.008 -9.45197,5.71945 -0.17996,0.10964 0.42599,-0.0886 0.59436,-0.21536 0.57967,-0.43624 0.46045,-1.39627 0.47212,-1.99592 0.005,-1.70839 0.0162,-3.41693 -0.008,-5.12523 -0.0446,-1.91497 -0.13554,-3.83517 -0.5244,-5.71678 -0.45034,-2.06417 -0.95857,-4.1502 -1.8154,-6.08557 -0.68314,-1.5781 -1.74805,-2.95882 -3.15892,-3.95874 -1.34374,-0.93281 -2.74723,-1.84547 -4.36894,-2.19632 -0.48256,-0.023 -0.87301,-0.0807 -1.34838,0.0468 -0.18079,0.0485 -0.67092,0.33007 -0.5111,0.23262 3.409,-2.07861 6.84132,-4.11876 10.26198,-6.17814 -0.60869,0.33633 -0.35879,0.10939 -0.75138,0.67896 -0.2375,1.40725 0.17581,2.85954 0.72402,4.15441 0.79194,1.62162 1.4323,3.29417 2.08677,4.97481 0.91669,1.95375 1.89542,3.8883 2.61947,5.92265 0.83863,2.14838 1.58863,4.34948 1.83308,6.65592 0.569,3.79673 0.87435,7.62118 1.39546,11.4254 0.44556,4.27637 1.03791,8.56465 2.50037,12.63141 1.54082,4.73314 0.4044,0.45597 -10.91003,6.76435 -0.0719,0.0401 0.20755,0.088 0.24641,0.0155 0.29982,-0.55975 -0.18558,-1.53219 0.0149,-2.11547 -0.0431,-1.80356 -0.12488,-3.61194 -0.47959,-5.38614 -0.46518,-2.25969 -0.97997,-4.50841 -1.49322,-6.75713 -0.71772,-2.93528 -1.28314,-5.91739 -1.56341,-8.92797 -0.20652,-3.88624 -0.64777,-7.76599 -0.60492,-11.66009 -0.006,-4.24028 0.009,-8.4829 0.25531,-12.71755 0.24398,-3.6121 0.54341,-7.25628 1.68039,-10.71761 0.0887,-0.31417 0.19704,-0.62345 0.2661,-0.94251 0.0586,-0.27084 -0.11962,-0.67742 0.11605,-0.82319 7.60968,-4.70665 9.88176,-10.05312 12.35543,-4.7021 1.07487,2.55051 1.73383,5.23767 2.24892,7.9535 0.4631,3.05477 0.91752,6.12462 1.01212,9.2165 0.10506,2.43075 0.27994,4.85704 0.70933,7.25569 0.36598,2.5031 0.37585,5.0633 1.09456,7.5117 0.66575,2.45741 1.34195,4.91718 1.57775,7.46276 -0.004,1.99607 -0.0113,3.99305 -0.11257,5.98706 -0.13194,2.22081 -0.32428,4.45764 -1.01585,6.5867 -0.60898,1.91189 -1.11799,3.86031 -1.55481,5.81884 -0.69503,3.40481 -0.83289,6.9385 -0.87622,10.40218 0.01,4.4063 -8e-5,8.81342 0.1092,13.21867 0.11297,2.87136 0.0974,5.86009 0.98883,8.61772 -3.61478,2.10182 -7.22957,4.20364 -10.84436,6.30546 0.23197,-0.3116 0.30855,-0.34828 0.36921,-0.79975 0.10117,-0.75305 -0.055,-1.54525 0.0355,-2.30032 0.0393,-1.58486 0.0893,-3.17696 0.37805,-4.74004 0.29553,-1.42801 0.61805,-2.79225 0.4441,-4.27092 -0.003,-1.55136 0.0156,-3.10243 0.0162,-4.65378 0.005,-1.89511 0.0137,-3.7902 0.0195,-5.6853 9e-5,-1.93878 0.003,-3.87763 -0.0122,-5.81635 -0.0452,-2.11729 -0.13928,-4.23974 -0.54787,-6.32376 -0.51774,-2.53771 -1.15057,-5.05294 -1.76008,-7.56926 -0.56015,-2.28444 -1.30834,-4.52286 -2.09925,-6.73652 -0.2447,-0.82132 -0.87419,-2.56856 -0.83136,-2.59822 10.60692,-7.34355 8.12648,-9.88141 11.46282,-6.13152 0.96953,1.19528 1.88953,2.41235 2.43482,3.87263 0.55905,1.75742 1.01528,3.50358 0.76881,5.36863 -0.11732,1.79622 -0.31176,3.59432 -0.86729,5.31635 -0.66074,1.67665 -0.89807,3.53033 -1.47151,5.24155 -0.50351,1.88747 -0.95622,3.78277 -1.50899,5.66051 -0.45576,1.73578 -1.04221,3.45335 -1.75638,5.09734 -0.74354,1.3758 -1.47775,2.84653 -1.65389,4.4145 -0.13088,2.21519 0.61603,4.38964 0.4844,6.61331 0.0112,2.11284 0.0286,4.22993 0.23319,6.33467 0.25709,2.15179 0.76898,4.23241 1.28893,6.33226 0.5046,1.86192 1.21263,3.6587 1.77423,5.50391 0.0886,0.20517 0.16692,0.41508 0.26577,0.61551 0.0903,0.18305 0.47606,0.42871 0.30081,0.53332 -3.60497,2.15175 -7.49396,3.79888 -11.11585,5.92203 -0.15305,0.0897 0.20574,0.36208 0.38299,0.36957 0.33003,0.0139 -0.16102,-1.18359 0.23267,-0.96328 0.29518,-1.62884 0.67957,-3.24998 0.56261,-4.91594 0.001,-1.67941 -0.002,-3.35971 0.072,-5.03784 0.0885,-1.5199 0.22784,-3.04065 0.64033,-4.51285 0.38782,-1.66933 0.11331,-3.43463 0.44404,-5.12372 0.24036,-1.66039 0.70901,-3.26714 0.75847,-4.94817 0.17807,-1.55374 0.57976,-3.08631 0.62443,-4.64138 -0.0483,-1.28321 -0.12184,-2.58039 -0.54376,-3.80536 -0.55334,-1.35162 -1.26908,-2.63065 -1.70791,-4.03241 -0.32899,-1.44365 -0.46642,-2.91414 -0.9024,-4.3303 -0.54959,-1.46865 -1.22089,-2.8957 -1.61642,-4.41697 -0.48732,-1.38757 -1.06812,-2.72839 -1.17036,-4.22171 0.002,-1.71173 0.001,-3.42441 0.0827,-5.13464 0.10357,-1.73133 0.28604,-3.45562 0.64463,-5.15508 0.30453,-1.81155 0.0696,-3.6711 0.15649,-5.50144 0.003,-2.06165 -0.005,-4.12419 -0.0859,-6.1845 -0.13546,-2.49038 -0.39393,-4.97243 -0.93937,-7.41065 -0.43678,-2.11647 -0.76189,-4.28211 -0.70246,-6.44698 0.004,-2.21062 0.014,-4.42128 0.0507,-6.63164 0.0461,-2.60335 0.12595,-5.22005 0.59274,-7.78806 0.60041,-2.66287 1.31304,-5.2989 1.89436,-7.96676 0.41198,-2.23044 0.8579,-4.4553 1.19366,-6.69787 0.28548,-1.59375 0.79614,-3.0809 1.26698,-4.6203 0.45068,-1.0731 1.43948,-1.84415 1.77299,-2.99879 0.62719,-1.3024 1.06016,-2.3375 0.88491,-3.84281 -0.0151,-1.36017 -0.0204,-2.72729 -0.2315,-4.07454 -0.27011,-1.50123 -0.8692,-2.87562 -1.25619,-4.34259 -0.42022,-1.51374 -0.71488,-3.06068 -1.30656,-4.52149 -0.66872,-1.88657 -1.06466,-3.87415 -1.25628,-5.86488 -0.13786,-2.13337 0.25622,-4.23803 0.72218,-6.31555 0.50039,-2.22736 0.82909,-4.49939 1.67579,-6.63756 0.4656,-1.59447 1.10531,-3.13523 1.32708,-4.79516 2.19642,-7.28303 10.83819,-11.12278 12.74206,-4.88184 0.73496,1.62491 1.10323,3.37543 1.83817,5.00081 0.79697,1.7876 1.43723,3.66242 1.61913,5.62238 0.33008,2.51251 0.53229,5.01303 0.34955,7.55106 -0.0735,2.92303 -0.21107,5.84904 -0.59687,8.74982 -0.48307,2.65493 -0.82731,5.33332 -1.4482,7.96191 -0.65951,2.71273 -1.30992,5.41979 -2.16919,8.07856 -0.47382,1.99922 -1.15353,3.93831 -1.90186,5.848 -0.67524,1.7414 -1.16118,3.55534 -1.7216,5.33597 -0.64841,1.98243 -1.04136,4.04536 -1.32395,6.10875 -0.26744,1.98914 -0.0703,4.0069 -0.11966,6.00983 0.0284,1.90716 0.0727,3.81811 0.2983,5.71408 0.24343,1.83506 0.68761,3.63624 0.76289,5.48951 0.19825,1.72729 0.63125,3.43229 0.65217,5.17062 4e-5,1.70099 1.5e-4,3.40199 -1.4e-4,5.10298 -4.5e-4,1.70229 -0.001,3.40457 -0.005,5.10685 -0.005,1.70642 -0.014,3.41284 -0.0125,5.11928 0.0101,1.63982 0.006,3.29067 0.27601,4.91304 1.45846,6.57662 7.58068,-0.0441 -9.4982,8.84811 0.99046,0.94455 -0.21224,-2.0264 -0.1921,-2.28104 -0.37755,-1.44578 -0.404,-2.98038 -1.06931,-4.35369 -0.67713,-1.84656 -1.18451,-3.75938 -1.9099,-5.59167 -0.5801,-1.76499 -0.96752,-3.56887 -1.40186,-5.37262 -0.44045,-1.68901 -0.71577,-3.45622 -0.86709,-5.19046 -0.10659,-1.71014 -0.30617,-3.41078 -0.71872,-5.07763 -0.37039,-1.8426 -0.3911,-3.74242 -0.76795,-5.5889 -0.23049,-1.83579 -0.12087,-3.68776 -0.1449,-5.53541 -5e-5,-1.70069 -1.2e-4,-3.40138 -5e-4,-5.10206 -4.2e-4,-1.75555 -0.001,-3.51109 -7.8e-4,-5.26664 0.002,-1.9417 0.004,-3.88345 0.029,-5.82502 0.0694,-1.70923 0.17665,-3.42865 0.64113,-5.08453 0.4527,-1.49025 0.81115,-3.018 1.50816,-4.41953 0.52342,-1.86083 1.40606,-3.55492 2.24373,-5.28981 0.62811,-1.62469 1.31838,-3.2272 1.52162,-4.97539 -0.052,-1.41185 -0.0954,-2.83809 -0.46432,-4.2109 -0.43733,-1.42266 -0.92489,-2.83554 -1.46481,-4.21927 -0.71568,-1.42324 -1.44312,-2.83527 -2.16349,-4.25633 -0.95547,-1.88753 -1.68958,-3.87785 -1.83997,-6.00595 0.009,-2.26515 0.026,-4.53031 0.0198,-6.79549 0.0147,-2.18738 0.004,-4.37812 0.18337,-6.56 0.14771,-1.71861 0.58704,-3.39827 0.63057,-5.11738 -0.004,-1.60048 -0.0134,-3.20114 0.0114,-4.8015 0.0439,-1.66858 0.17986,-3.33096 0.42377,-4.98314 0.30033,-1.97242 0.56625,-3.92443 0.59365,-5.92407 0.24099,-2.40406 0.64415,-4.78536 1.15989,-7.14597 0.25322,-2.3309 0.54286,-4.65634 0.34749,-7.00568 0,0 11.25349,-5.73394 11.25349,-5.73394 z"
   inkscape:connector-curvature="0" /></svg>