<?xml version="1.0" encoding="iso-8859-1"?>
<!-- Generator: Adobe Illustrator 19.0.0, SVG Export Plug-In . SVG Version: 6.00 Build 0)  -->
<svg version="1.1" id="Capa_1" xmlns="http://www.w3.org/2000/svg" xmlns:xlink="http://www.w3.org/1999/xlink" x="0px" y="0px"
	 viewBox="0 0 512 512" style="enable-background:new 0 0 512 512;" xml:space="preserve">
<g>
	<g>
		<path d="M185.379,273.655h-70.621c-4.873,0-8.828,3.955-8.828,8.828v211.862c0,4.873,3.955,8.828,8.828,8.828h70.621
			c4.873,0,8.828-3.955,8.828-8.828V282.483C194.207,277.61,190.252,273.655,185.379,273.655z M176.552,485.517h-52.966V291.31
			h52.966V485.517z"/>
	</g>
</g>
<g>
	<g>
		<path d="M291.31,185.379H220.69c-4.873,0-8.828,3.955-8.828,8.828v300.138c0,4.873,3.955,8.828,8.828,8.828h70.621
			c4.873,0,8.828-3.955,8.828-8.828V194.207C300.138,189.334,296.183,185.379,291.31,185.379z M282.483,485.517h-52.965h0V203.034
			h52.966V485.517z"/>
	</g>
</g>
<g>
	<g>
		<path d="M397.241,97.103h-70.621c-4.873,0-8.828,3.955-8.828,8.828v388.414c0,4.873,3.955,8.828,8.828,8.828h70.621
			c4.873,0,8.828-3.955,8.828-8.828V105.931C406.069,101.058,402.114,97.103,397.241,97.103z M388.414,485.517h-52.966V114.759
			h52.966V485.517z"/>
	</g>
</g>
<g>
	<g>
		<path d="M503.172,8.828h-70.621c-4.873,0-8.828,3.955-8.828,8.828v476.69c0,4.873,3.955,8.828,8.828,8.828h70.621
			c4.873,0,8.828-3.955,8.828-8.828V17.655C512,12.782,508.045,8.828,503.172,8.828z M494.345,485.517h-52.966V26.483h52.966
			V485.517z"/>
	</g>
</g>
<g>
	<g>
		<path d="M79.448,361.931H8.828c-4.873,0-8.828,3.955-8.828,8.828v123.586c0,4.873,3.955,8.828,8.828,8.828h70.621
			c4.873,0,8.828-3.955,8.828-8.828V370.759C88.276,365.886,84.321,361.931,79.448,361.931z M70.621,485.517H17.655V379.586h52.966
			V485.517z"/>
	</g>
</g>
<g>
</g>
<g>
</g>
<g>
</g>
<g>
</g>
<g>
</g>
<g>
</g>
<g>
</g>
<g>
</g>
<g>
</g>
<g>
</g>
<g>
</g>
<g>
</g>
<g>
</g>
<g>
</g>
<g>
</g>
</svg>
