<?xml version="1.0" encoding="UTF-8" standalone="no"?>
<!-- Generator: Adobe Illustrator 19.0.0, SVG Export Plug-In . SVG Version: 6.00 Build 0)  -->

<svg
   xmlns:dc="http://purl.org/dc/elements/1.1/"
   xmlns:cc="http://creativecommons.org/ns#"
   xmlns:rdf="http://www.w3.org/1999/02/22-rdf-syntax-ns#"
   xmlns:svg="http://www.w3.org/2000/svg"
   xmlns="http://www.w3.org/2000/svg"
   xmlns:sodipodi="http://sodipodi.sourceforge.net/DTD/sodipodi-0.dtd"
   xmlns:inkscape="http://www.inkscape.org/namespaces/inkscape"
   version="1.1"
   id="Capa_1"
   x="0px"
   y="0px"
   viewBox="0 0 512 512"
   style="enable-background:new 0 0 512 512;"
   xml:space="preserve"
   sodipodi:docname="graphic1.svg"
   inkscape:version="0.92.4 (5da689c313, 2019-01-14)"><metadata
   id="metadata3883"><rdf:RDF><cc:Work
       rdf:about=""><dc:format>image/svg+xml</dc:format><dc:type
         rdf:resource="http://purl.org/dc/dcmitype/StillImage" /><dc:title></dc:title></cc:Work></rdf:RDF></metadata><defs
   id="defs3881" /><sodipodi:namedview
   pagecolor="#ffffff"
   bordercolor="#666666"
   borderopacity="1"
   objecttolerance="10"
   gridtolerance="10"
   guidetolerance="10"
   inkscape:pageopacity="0"
   inkscape:pageshadow="2"
   inkscape:window-width="1301"
   inkscape:window-height="744"
   id="namedview3879"
   showgrid="false"
   inkscape:zoom="1.1757812"
   inkscape:cx="187.96013"
   inkscape:cy="178.7991"
   inkscape:window-x="65"
   inkscape:window-y="24"
   inkscape:window-maximized="1"
   inkscape:current-layer="Capa_1" />
<g
   id="g3822">
	<g
   id="g3820">
		<path
   d="M185.379,273.655h-70.621c-4.873,0-8.828,3.955-8.828,8.828v211.862c0,4.873,3.955,8.828,8.828,8.828h70.621    c4.873,0,8.828-3.955,8.828-8.828V282.483C194.207,277.61,190.252,273.655,185.379,273.655z M176.552,485.517h-52.966V291.31    h52.966V485.517z"
   id="path3818" />
	</g>
</g>
<g
   id="g3828">
	<g
   id="g3826">
		<path
   d="M291.31,185.379H220.69c-4.873,0-8.828,3.955-8.828,8.828v300.138c0,4.873,3.955,8.828,8.828,8.828h70.621    c4.873,0,8.828-3.955,8.828-8.828V194.207C300.138,189.334,296.183,185.379,291.31,185.379z M282.483,485.517h-52.965h0V203.034    h52.966V485.517z"
   id="path3824" />
	</g>
</g>
<g
   id="g3834">
	<g
   id="g3832">
		<path
   d="M397.241,97.103h-70.621c-4.873,0-8.828,3.955-8.828,8.828v388.414c0,4.873,3.955,8.828,8.828,8.828h70.621    c4.873,0,8.828-3.955,8.828-8.828V105.931C406.069,101.058,402.114,97.103,397.241,97.103z M388.414,485.517h-52.966V114.759    h52.966V485.517z"
   id="path3830" />
	</g>
</g>
<g
   id="g3840">
	<g
   id="g3838">
		<path
   d="M503.172,8.828h-70.621c-4.873,0-8.828,3.955-8.828,8.828v476.69c0,4.873,3.955,8.828,8.828,8.828h70.621    c4.873,0,8.828-3.955,8.828-8.828V17.655C512,12.782,508.045,8.828,503.172,8.828z M494.345,485.517h-52.966V26.483h52.966    V485.517z"
   id="path3836" />
	</g>
</g>
<g
   id="g3846">
	<g
   id="g3844">
		<path
   d="M79.448,361.931H8.828c-4.873,0-8.828,3.955-8.828,8.828v123.586c0,4.873,3.955,8.828,8.828,8.828h70.621    c4.873,0,8.828-3.955,8.828-8.828V370.759C88.276,365.886,84.321,361.931,79.448,361.931z M70.621,485.517H17.655V379.586h52.966    V485.517z"
   id="path3842" />
	</g>
</g>
<g
   id="g3848">
</g>
<g
   id="g3850">
</g>
<g
   id="g3852">
</g>
<g
   id="g3854">
</g>
<g
   id="g3856">
</g>
<g
   id="g3858">
</g>
<g
   id="g3860">
</g>
<g
   id="g3862">
</g>
<g
   id="g3864">
</g>
<g
   id="g3866">
</g>
<g
   id="g3868">
</g>
<g
   id="g3870">
</g>
<g
   id="g3872">
</g>
<g
   id="g3874">
</g>
<g
   id="g3876">
</g>
<path
   style="stroke-width:0.85049832"
   d="m 17.860465,432.39336 v -52.7309 h 26.365449 26.365448 v 52.7309 52.73089 H 44.225914 17.860465 Z"
   id="path3885"
   inkscape:connector-curvature="0" /><path
   style="stroke-width:0.85049832"
   d="m 30.830565,379.0262 c 7.367442,-0.14159 19.423256,-0.14159 26.790697,0 7.367442,0.14159 1.339535,0.25743 -13.395348,0.25743 -14.734884,0 -20.762791,-0.11584 -13.395349,-0.25743 z"
   id="path3887"
   inkscape:connector-curvature="0" /><path
   style="stroke-width:0.85049832"
   d="M 4.5173086,501.32478 C 2.6950232,500.21366 1.5108116,498.61043 0.90743384,496.4376 -0.06785582,492.92547 -0.42149813,374.32809 0.52914528,369.57487 0.82017518,368.11972 2.0205376,365.9669 3.1966173,364.79082 l 2.1383268,-2.13833 h 38.6471209 38.64712 l 2.486069,2.48607 2.486075,2.48608 -0.01892,64.91592 c -0.01752,60.22268 -0.125143,65.04707 -1.488372,66.73 -2.957926,3.65162 -3.667597,3.71429 -42.02484,3.71098 -34.9878197,-0.003 -36.9763095,-0.0863 -39.5518934,-1.65676 z M 44.438538,485.33733 17.860465,485.10002 v -52.70666 -52.70667 l 26.365721,-0.24321 26.36572,-0.24322 -26.578345,0.0185 -26.578345,0.0185 -0.219014,53.36877 -0.219016,53.36877 27.009713,-0.20006 27.009712,-0.20006 z"
   id="path3889"
   inkscape:connector-curvature="0" /><path
   style="stroke-width:0.85049832"
   d="M 4.5173086,501.32478 C 2.6950232,500.21366 1.5108116,498.61043 0.90743384,496.4376 -0.06785582,492.92547 -0.42149813,374.32809 0.52914528,369.57487 0.82017518,368.11972 2.0205376,365.9669 3.1966173,364.79082 l 2.1383268,-2.13833 H 44.18277 83.030596 l 2.285367,2.38541 2.285366,2.38541 v 64.85987 c 0,42.85839 -0.297054,65.41492 -0.875707,66.49616 -2.187507,4.08739 -3.387743,4.20559 -42.670097,4.2022 -34.9742729,-0.003 -36.9626733,-0.0863 -39.5382164,-1.65676 z m 38.2266674,-15.98738 -24.870644,-0.23882 -0.225614,-52.93069 -0.225614,-52.93068 -0.206069,53.36877 -0.206068,53.36877 25.302325,-0.19927 25.302326,-0.19927 z"
   id="path3891"
   inkscape:connector-curvature="0" /><path
   style="stroke-width:0.85049832"
   d="M 4.5173086,501.32478 C 2.6950232,500.21366 1.5108116,498.61043 0.90743384,496.4376 -0.24790538,492.27709 -0.35082963,371.34046 0.79839622,368.31777 1.2375141,367.1628 2.457854,365.41563 3.5102625,364.43516 c 1.8847203,-1.75588 2.496486,-1.78267 40.7169015,-1.78267 h 38.803432 l 2.285367,2.38541 2.285366,2.38541 v 64.85987 c 0,42.85839 -0.297054,65.41492 -0.875707,66.49616 -2.187507,4.08739 -3.387743,4.20559 -42.670097,4.2022 -34.9742729,-0.003 -36.9626733,-0.0863 -39.5382164,-1.65676 z m 32.2749814,-15.98703 -18.915351,-0.246 -0.229306,-40.59504 -0.229306,-40.59505 -0.20418,41.03655 -0.20418,41.03654 19.348837,-0.1955 19.348837,-0.19551 z"
   id="path3893"
   inkscape:connector-curvature="0" /><path
   style="stroke-width:0.85049832"
   d="M 3.9937806,501.06832 C 2.7552663,500.0941 1.3309036,497.88234 0.82852997,496.15327 0.20374504,494.00291 -0.00428081,473.20725 0.17018633,430.34083 l 0.25506284,-62.6687 2.49799123,-2.60704 2.4979911,-2.60705 H 44.225914 83.030596 l 2.285367,2.38541 2.285366,2.38541 v 65.18178 65.18178 l -2.052057,2.3863 -2.052048,2.3863 -38.6258,0.23729 C 6.8412453,502.83596 6.2109006,502.8123 3.9937806,501.06832 Z m 27.6997224,-15.92431 -13.808158,-0.25622 -0.238011,-25.70657 -0.238011,-25.70657 -0.199678,26.15282 -0.199678,26.15283 14.245847,-0.19003 14.245847,-0.19003 z"
   id="path3895"
   inkscape:connector-curvature="0" /><path
   style="stroke-width:0.85049832"
   d="M 3.9624095,501.04364 C 2.7411493,500.083 1.3309036,497.88234 0.82852997,496.15327 0.20374504,494.00291 -0.00428081,473.20725 0.17018633,430.34083 l 0.25506284,-62.6687 2.49799123,-2.60704 2.4979911,-2.60705 H 44.225914 83.030596 l 2.285367,2.38541 2.285366,2.38541 v 65.29463 65.29463 l -2.486075,2.48607 -2.486069,2.48608 H 44.406034 c -37.2681689,0 -38.2786286,-0.0436 -40.4436245,-1.74663 z m 23.0595745,-15.8978 -9.124196,-0.27321 -0.251223,-15.91826 -0.251224,-15.91826 -0.192687,16.3721 -0.192687,16.37209 9.568106,-0.18063 9.568106,-0.18063 z"
   id="path3897"
   inkscape:connector-curvature="0" /><path
   style="stroke-width:0.85049832"
   d="M 3.9624095,501.04364 C 2.7411493,500.083 1.3309036,497.88234 0.82852997,496.15327 0.20374504,494.00291 -0.00428081,473.20725 0.17018633,430.34083 l 0.25506284,-62.6687 2.49799123,-2.60704 2.4979911,-2.60705 H 44.225914 83.030596 l 2.285367,2.38541 2.285366,2.38541 v 65.29463 65.29463 l -2.486075,2.48607 -2.486069,2.48608 H 44.406034 c -37.2681689,0 -38.2786286,-0.0436 -40.4436245,-1.74663 z m 19.6664165,-15.8934 -5.713367,-0.29691 -0.270946,-9.52987 -0.270948,-9.52987 -0.181799,9.99335 -0.181799,9.99336 6.166113,-0.16658 6.166113,-0.16658 z"
   id="path3899"
   inkscape:connector-curvature="0" /><path
   style="stroke-width:0.85049832"
   d="M 3.2027867,500.30883 0.42524917,497.8274 0.19201914,433.17253 -0.04121098,368.51765 2.6189945,365.48785 5.2792,362.45804 h 38.875698 38.875698 l 2.285367,2.38541 2.285366,2.38541 v 65.39529 65.3953 l -2.285366,2.38541 -2.285367,2.38541 H 44.50546 5.9803242 Z m 18.3086053,-15.1495 -3.57831,-0.32378 -0.292566,-6.11899 -0.292566,-6.11899 -0.168992,6.59137 -0.168991,6.59136 4.039867,-0.14859 4.039867,-0.14858 z"
   id="path3901"
   inkscape:connector-curvature="0" /><path
   style="stroke-width:0.85049832"
   d="M 3.2027867,500.30883 0.42524917,497.8274 0.19182046,432.9688 -0.04160816,368.11019 2.6975304,365.28411 5.4366691,362.45804 H 44.233633 83.030596 l 2.285367,2.38541 2.285366,2.38541 v 65.39529 65.3953 l -2.285366,2.38541 -2.285367,2.38541 H 44.50546 5.9803242 Z M 20.243803,485.17542 c -2.059102,-0.31413 -2.326852,-0.75897 -2.610818,-4.33769 l -0.316417,-3.98766 -0.153301,4.46511 -0.1533,4.46512 2.764119,-0.12743 c 2.507239,-0.11559 2.550892,-0.15996 0.469717,-0.47745 z"
   id="path3903"
   inkscape:connector-curvature="0" /><path
   style="stroke-width:0.85049832"
   d="M 3.2027867,500.30878 0.42524917,497.82728 0.196868,432.96353 -0.03151309,368.09977 2.702578,365.27891 5.4366691,362.45804 H 44.233633 83.030596 l 2.285367,2.38541 2.285366,2.38541 v 65.39529 65.3953 l -2.285366,2.38541 -2.285367,2.38541 H 44.50546 5.9803242 Z M 19.39879,485.20365 c -0.865138,-0.22815 -1.573564,-1.45995 -1.777511,-3.09071 -0.325777,-2.60493 -0.344433,-2.58616 -0.475201,0.47799 -0.119788,2.80687 0.09339,3.17754 1.77751,3.09071 1.359722,-0.0701 1.497269,-0.20846 0.475202,-0.47799 z"
   id="path3905"
   inkscape:connector-curvature="0" /><path
   style="stroke-width:0.85049832"
   d="M 2.8916944,499.89857 0,497.00688 v -64.56147 -64.56147 l 2.652413,-2.71295 2.652413,-2.71295 h 38.862885 38.862885 l 2.285367,2.38541 2.285366,2.38541 v 65.39529 65.3953 l -2.285366,2.38541 -2.285367,2.38541 H 44.406992 5.7833887 Z M 19.021975,485.1294 c -0.530604,-0.34367 -1.155975,-1.3903 -1.389712,-2.32585 -0.325733,-1.30376 -0.448018,-1.15479 -0.523638,0.63788 -0.07182,1.70252 0.306292,2.33532 1.389714,2.32585 0.944573,-0.009 1.135891,-0.24132 0.523636,-0.63788 z"
   id="path3907"
   inkscape:connector-curvature="0" /><path
   style="stroke-width:0.85049832"
   d="M 2.7183346,499.98565 0,497.18105 V 432.5325 367.88394 l 2.652413,-2.71295 2.652413,-2.71295 h 38.862885 38.862885 l 2.285367,2.38541 2.285366,2.38541 v 65.39529 65.3953 l -2.285366,2.38541 -2.285367,2.38541 H 44.233633 5.4366691 Z M 18.923588,485.21703 c -0.584718,-0.23594 -1.063123,-1.03496 -1.063123,-1.7756 0,-0.74064 -0.238643,-1.10798 -0.530319,-0.8163 -0.829703,0.8297 0.353995,3.16275 1.566749,3.08802 0.853596,-0.0526 0.859381,-0.16012 0.0267,-0.49612 z"
   id="path3909"
   inkscape:connector-curvature="0" /><path
   style="stroke-width:0.85049832"
   d="M 2.7183346,499.98565 0,497.18105 V 432.5325 367.88394 l 2.652413,-2.71295 2.652413,-2.71295 h 38.862885 38.862885 l 2.285367,2.38541 2.285366,2.38541 v 65.39529 65.3953 l -2.285366,2.38541 -2.285367,2.38541 H 44.233633 5.4366691 Z M 18.153953,484.46787 c -0.276995,-0.72184 -0.686032,-1.13002 -0.908971,-0.90708 -0.22294,0.22294 -0.153071,0.81353 0.155262,1.31243 0.838634,1.35693 1.328802,1.09332 0.753709,-0.40535 z"
   id="path3911"
   inkscape:connector-curvature="0" /><path
   style="stroke-width:0.85049832"
   d="M 2.7183346,499.98565 0,497.18105 v -64.72007 -64.72006 l 2.4674741,-2.64144 2.4674741,-2.64144 H 43.982772 83.030596 l 2.285367,2.38541 2.285366,2.38541 v 65.39529 65.3953 l -2.285366,2.38541 -2.285367,2.38541 H 44.233633 5.4366691 Z M 18.153953,484.46787 c -0.276995,-0.72184 -0.686032,-1.13002 -0.908971,-0.90708 -0.22294,0.22294 -0.153071,0.81353 0.155262,1.31243 0.838634,1.35693 1.328802,1.09332 0.753709,-0.40535 z"
   id="path3913"
   inkscape:connector-curvature="0" /><path
   style="stroke-width:0.85049832"
   d="M 2.7183346,499.98565 0,497.18105 v -64.51711 -64.5171 l 2.1695288,-2.8444 2.1695288,-2.8444 H 43.684827 83.030596 l 2.285367,2.38541 2.285366,2.38541 v 65.39529 65.3953 l -2.285366,2.38541 -2.285367,2.38541 H 44.233633 5.4366691 Z"
   id="path3915"
   inkscape:connector-curvature="0" /><path
   style="stroke-width:0.85049832"
   d="M 2.7183346,499.98565 0,497.18105 v -64.51711 -64.5171 l 2.1695288,-2.8444 2.1695288,-2.8444 H 43.684827 83.030596 l 2.285367,2.38541 2.285366,2.38541 v 65.39529 65.3953 l -2.285366,2.38541 -2.285367,2.38541 H 44.233633 5.4366691 Z"
   id="path3917"
   inkscape:connector-curvature="0" /><path
   style="stroke-width:0.85049832"
   d="M 2.7183346,499.98565 0,497.18105 v -64.51711 -64.5171 l 2.1695288,-2.8444 2.1695288,-2.8444 H 43.684827 83.030596 l 2.285367,2.38541 2.285366,2.38541 v 65.39529 65.3953 l -2.285366,2.38541 -2.285367,2.38541 H 44.233633 5.4366691 Z"
   id="path3919"
   inkscape:connector-curvature="0" /><path
   style="stroke-width:0.85049832"
   d="M 2.7183346,499.98565 0,497.18105 v -64.74476 -64.74475 l 2.2018497,-2.61675 2.2018498,-2.61675 H 43.916879 83.43006 l 2.085634,2.25044 2.085635,2.25044 v 65.53026 65.53027 l -2.285366,2.38541 -2.285367,2.38541 H 44.233633 5.4366691 Z"
   id="path3921"
   inkscape:connector-curvature="0" /><path
   style="stroke-width:0.85049832"
   d="M 2.7183346,499.98565 0,497.18105 v -64.74476 -64.74475 l 2.2018497,-2.61675 2.2018498,-2.61675 H 44.243603 84.083506 l 1.758916,2.47016 c 1.741574,2.44583 1.758907,3.11506 1.758907,67.92389 v 65.45373 l -2.24222,2.24223 -2.242226,2.24222 H 44.276776 5.4366691 Z"
   id="path3923"
   inkscape:connector-curvature="0" /><path
   style="stroke-width:0.85049832"
   d="M 2.7183346,499.98565 0,497.18105 v -64.9761 -64.97609 l 2.2853666,-2.38541 2.2853666,-2.38541 H 44.323305 84.075877 l 1.762726,2.24094 c 1.748744,2.22317 1.762726,2.76204 1.762726,67.92389 v 65.68295 l -2.24222,2.24223 -2.242226,2.24222 H 44.276776 5.4366691 Z"
   id="path3925"
   inkscape:connector-curvature="0" /><path
   style="stroke-width:0.85049832"
   d="M 2.7183346,499.98565 0,497.18105 v -64.9761 -64.97609 l 2.2853666,-2.38541 2.2853666,-2.38541 H 44.323305 84.075877 l 1.762726,2.24094 c 1.748625,2.22301 1.762726,2.76471 1.762726,67.69595 0,64.81013 -0.01735,65.47934 -1.758907,67.92517 l -1.758916,2.47017 H 44.760089 5.4366691 Z"
   id="path3927"
   inkscape:connector-curvature="0" /></svg>